<svg width="16" height="16" viewBox="0 0 16 16" fill="none" xmlns="http://www.w3.org/2000/svg">
<g clip-path="url(#clip0_328_7546)">
<path d="M12.5 2.75C12.6989 2.75 12.8897 2.82902 13.0303 2.96967C13.171 3.11032 13.25 3.30109 13.25 3.5V12.5C13.25 12.6989 13.171 12.8897 13.0303 13.0303C12.8897 13.171 12.6989 13.25 12.5 13.25H3.5C3.30109 13.25 3.11032 13.171 2.96967 13.0303C2.82902 12.8897 2.75 12.6989 2.75 12.5V3.5C2.75 3.30109 2.82902 3.11032 2.96967 2.96967C3.11032 2.82902 3.30109 2.75 3.5 2.75H12.5ZM3.5 2C3.10218 2 2.72064 2.15804 2.43934 2.43934C2.15804 2.72064 2 3.10218 2 3.5L2 12.5C2 12.8978 2.15804 13.2794 2.43934 13.5607C2.72064 13.842 3.10218 14 3.5 14H12.5C12.8978 14 13.2794 13.842 13.5607 13.5607C13.842 13.2794 14 12.8978 14 12.5V3.5C14 3.10218 13.842 2.72064 13.5607 2.43934C13.2794 2.15804 12.8978 2 12.5 2H3.5Z" fill="#FF8642"/>
<path d="M10.0606 5.76963C10.1635 5.66766 10.3023 5.61027 10.4472 5.60987C10.592 5.60947 10.7312 5.66609 10.8347 5.76749C10.9381 5.8689 10.9975 6.00694 10.9999 6.15176C11.0024 6.29659 10.9478 6.43657 10.8478 6.54144L7.91352 10.2094C7.86309 10.2637 7.80223 10.3073 7.73456 10.3376C7.6669 10.3678 7.59383 10.3841 7.51972 10.3855C7.44561 10.3869 7.37199 10.3733 7.30325 10.3456C7.23452 10.3178 7.17208 10.2765 7.11967 10.2241L5.17546 8.27913C5.1213 8.22866 5.07786 8.1678 5.04772 8.10017C5.01759 8.03255 5.00139 7.95954 5.00009 7.88552C4.99878 7.8115 5.0124 7.73797 5.04012 7.66932C5.06785 7.60068 5.10912 7.53832 5.16147 7.48597C5.21382 7.43362 5.27617 7.39235 5.34482 7.36462C5.41346 7.3369 5.48699 7.32328 5.56101 7.32459C5.63503 7.32589 5.70804 7.34209 5.77566 7.37223C5.84328 7.40236 5.90415 7.4458 5.95462 7.49996L7.49381 9.03845L10.0466 5.7858C10.0512 5.78011 10.0554 5.7747 10.0606 5.76963Z" fill="#FF8642"/>
</g>
<defs>
<clipPath id="clip0_328_7546">
<rect width="12" height="12" fill="white" transform="translate(2 2)"/>
</clipPath>
</defs>
</svg>
