<svg width="16" height="16" viewBox="0 0 16 16" fill="none" xmlns="http://www.w3.org/2000/svg">
<g clip-path="url(#clip0_328_7538)">
<path d="M12.5 2.75C12.6989 2.75 12.8897 2.82902 13.0303 2.96967C13.171 3.11032 13.25 3.30109 13.25 3.5V12.5C13.25 12.6989 13.171 12.8897 13.0303 13.0303C12.8897 13.171 12.6989 13.25 12.5 13.25H3.5C3.30109 13.25 3.11032 13.171 2.96967 13.0303C2.82902 12.8897 2.75 12.6989 2.75 12.5V3.5C2.75 3.30109 2.82902 3.11032 2.96967 2.96967C3.11032 2.82902 3.30109 2.75 3.5 2.75H12.5ZM3.5 2C3.10218 2 2.72064 2.15804 2.43934 2.43934C2.15804 2.72064 2 3.10218 2 3.5L2 12.5C2 12.8978 2.15804 13.2794 2.43934 13.5607C2.72064 13.842 3.10218 14 3.5 14H12.5C12.8978 14 13.2794 13.842 13.5607 13.5607C13.842 13.2794 14 12.8978 14 12.5V3.5C14 3.10218 13.842 2.72064 13.5607 2.43934C13.2794 2.15804 12.8978 2 12.5 2H3.5Z" fill="#FF8642"/>
<path fill-rule="evenodd" clip-rule="evenodd" d="M8 5C8.0663 5 8.12989 5.02634 8.17678 5.07322C8.22366 5.12011 8.25 5.1837 8.25 5.25V7.75H10.75C10.8163 7.75 10.8799 7.77634 10.9268 7.82322C10.9737 7.87011 11 7.9337 11 8C11 8.0663 10.9737 8.12989 10.9268 8.17678C10.8799 8.22366 10.8163 8.25 10.75 8.25H8.25V10.75C8.25 10.8163 8.22366 10.8799 8.17678 10.9268C8.12989 10.9737 8.0663 11 8 11C7.9337 11 7.87011 10.9737 7.82322 10.9268C7.77634 10.8799 7.75 10.8163 7.75 10.75V8.25H5.25C5.1837 8.25 5.12011 8.22366 5.07322 8.17678C5.02634 8.12989 5 8.0663 5 8C5 7.9337 5.02634 7.87011 5.07322 7.82322C5.12011 7.77634 5.1837 7.75 5.25 7.75H7.75V5.25C7.75 5.1837 7.77634 5.12011 7.82322 5.07322C7.87011 5.02634 7.9337 5 8 5Z" fill="#FF8642"/>
</g>
<defs>
<clipPath id="clip0_328_7538">
<rect width="12" height="12" fill="white" transform="translate(2 2)"/>
</clipPath>
</defs>
</svg>
