<svg width="16" height="16" viewBox="0 0 16 16" fill="none" xmlns="http://www.w3.org/2000/svg">
<path fill-rule="evenodd" clip-rule="evenodd" d="M5.42857 10.9286C5.42857 10.815 5.47372 10.706 5.5541 10.6256C5.63447 10.5452 5.74348 10.5001 5.85714 10.5001H13.5714C13.6851 10.5001 13.7941 10.5452 13.8745 10.6256C13.9548 10.706 14 10.815 14 10.9286C14 11.0423 13.9548 11.1513 13.8745 11.2317C13.7941 11.3121 13.6851 11.3572 13.5714 11.3572H5.85714C5.74348 11.3572 5.63447 11.3121 5.5541 11.2317C5.47372 11.1513 5.42857 11.0423 5.42857 10.9286ZM5.42857 7.50007C5.42857 7.38641 5.47372 7.2774 5.5541 7.19702C5.63447 7.11665 5.74348 7.0715 5.85714 7.0715H13.5714C13.6851 7.0715 13.7941 7.11665 13.8745 7.19702C13.9548 7.2774 14 7.38641 14 7.50007C14 7.61373 13.9548 7.72274 13.8745 7.80312C13.7941 7.88349 13.6851 7.92864 13.5714 7.92864H5.85714C5.74348 7.92864 5.63447 7.88349 5.5541 7.80312C5.47372 7.72274 5.42857 7.61373 5.42857 7.50007ZM5.42857 4.0715C5.42857 3.95783 5.47372 3.84883 5.5541 3.76845C5.63447 3.68808 5.74348 3.64293 5.85714 3.64293H13.5714C13.6851 3.64293 13.7941 3.68808 13.8745 3.76845C13.9548 3.84883 14 3.95783 14 4.0715C14 4.18516 13.9548 4.29417 13.8745 4.37454C13.7941 4.45492 13.6851 4.50007 13.5714 4.50007H5.85714C5.74348 4.50007 5.63447 4.45492 5.5541 4.37454C5.47372 4.29417 5.42857 4.18516 5.42857 4.0715ZM2.85714 4.92864C3.08447 4.92864 3.30249 4.83834 3.46323 4.67759C3.62398 4.51684 3.71429 4.29883 3.71429 4.0715C3.71429 3.84417 3.62398 3.62615 3.46323 3.46541C3.30249 3.30466 3.08447 3.21436 2.85714 3.21436C2.62981 3.21436 2.4118 3.30466 2.25105 3.46541C2.09031 3.62615 2 3.84417 2 4.0715C2 4.29883 2.09031 4.51684 2.25105 4.67759C2.4118 4.83834 2.62981 4.92864 2.85714 4.92864ZM2.85714 8.35721C3.08447 8.35721 3.30249 8.26691 3.46323 8.10616C3.62398 7.94542 3.71429 7.7274 3.71429 7.50007C3.71429 7.27274 3.62398 7.05472 3.46323 6.89398C3.30249 6.73323 3.08447 6.64293 2.85714 6.64293C2.62981 6.64293 2.4118 6.73323 2.25105 6.89398C2.09031 7.05472 2 7.27274 2 7.50007C2 7.7274 2.09031 7.94542 2.25105 8.10616C2.4118 8.26691 2.62981 8.35721 2.85714 8.35721ZM2.85714 11.7858C3.08447 11.7858 3.30249 11.6955 3.46323 11.5347C3.62398 11.374 3.71429 11.156 3.71429 10.9286C3.71429 10.7013 3.62398 10.4833 3.46323 10.3225C3.30249 10.1618 3.08447 10.0715 2.85714 10.0715C2.62981 10.0715 2.4118 10.1618 2.25105 10.3225C2.09031 10.4833 2 10.7013 2 10.9286C2 11.156 2.09031 11.374 2.25105 11.5347C2.4118 11.6955 2.62981 11.7858 2.85714 11.7858Z" fill="#ffffff" stroke="#ffffff" stroke-width="0.2"/>
</svg>
