<svg width="16" height="16" viewBox="0 0 16 16" fill="none" xmlns="http://www.w3.org/2000/svg">
<path d="M5.625 9.875C5.625 9.77554 5.66451 9.68016 5.73484 9.60983C5.80516 9.53951 5.90054 9.5 6 9.5H7.5C7.59946 9.5 7.69484 9.53951 7.76516 9.60983C7.83549 9.68016 7.875 9.77554 7.875 9.875C7.875 9.97446 7.83549 10.0698 7.76516 10.1402C7.69484 10.2105 7.59946 10.25 7.5 10.25H6C5.90054 10.25 5.80516 10.2105 5.73484 10.1402C5.66451 10.0698 5.625 9.97446 5.625 9.875ZM5.625 8.375C5.625 8.27554 5.66451 8.18016 5.73484 8.10983C5.80516 8.03951 5.90054 8 6 8H9.75C9.84946 8 9.94484 8.03951 10.0152 8.10983C10.0855 8.18016 10.125 8.27554 10.125 8.375C10.125 8.47446 10.0855 8.56984 10.0152 8.64017C9.94484 8.71049 9.84946 8.75 9.75 8.75H6C5.90054 8.75 5.80516 8.71049 5.73484 8.64017C5.66451 8.56984 5.625 8.47446 5.625 8.375ZM5.625 6.875C5.625 6.77554 5.66451 6.68016 5.73484 6.60984C5.80516 6.53951 5.90054 6.5 6 6.5H9.75C9.84946 6.5 9.94484 6.53951 10.0152 6.60984C10.0855 6.68016 10.125 6.77554 10.125 6.875C10.125 6.97446 10.0855 7.06984 10.0152 7.14016C9.94484 7.21049 9.84946 7.25 9.75 7.25H6C5.90054 7.25 5.80516 7.21049 5.73484 7.14016C5.66451 7.06984 5.625 6.97446 5.625 6.875ZM5.625 5.375C5.625 5.27554 5.66451 5.18016 5.73484 5.10984C5.80516 5.03951 5.90054 5 6 5H9.75C9.84946 5 9.94484 5.03951 10.0152 5.10984C10.0855 5.18016 10.125 5.27554 10.125 5.375C10.125 5.47446 10.0855 5.56984 10.0152 5.64016C9.94484 5.71049 9.84946 5.75 9.75 5.75H6C5.90054 5.75 5.80516 5.71049 5.73484 5.64016C5.66451 5.56984 5.625 5.47446 5.625 5.375Z" fill="#FF8642" stroke="#FF8642" stroke-width="0.2"/>
<path d="M4.125 2H11.625C12.0228 2 12.4044 2.15804 12.6857 2.43934C12.967 2.72064 13.125 3.10218 13.125 3.5V12.5C13.125 12.8978 12.967 13.2794 12.6857 13.5607C12.4044 13.842 12.0228 14 11.625 14H4.125C3.72718 14 3.34564 13.842 3.06434 13.5607C2.78304 13.2794 2.625 12.8978 2.625 12.5V11.75H3.375V12.5C3.375 12.6989 3.45402 12.8897 3.59467 13.0303C3.73532 13.171 3.92609 13.25 4.125 13.25H11.625C11.8239 13.25 12.0147 13.171 12.1553 13.0303C12.296 12.8897 12.375 12.6989 12.375 12.5V3.5C12.375 3.30109 12.296 3.11032 12.1553 2.96967C12.0147 2.82902 11.8239 2.75 11.625 2.75H4.125C3.92609 2.75 3.73532 2.82902 3.59467 2.96967C3.45402 3.11032 3.375 3.30109 3.375 3.5V4.25H2.625V3.5C2.625 3.10218 2.78304 2.72064 3.06434 2.43934C3.34564 2.15804 3.72718 2 4.125 2Z" fill="#FF8642" stroke="#FF8642" stroke-width="0.2"/>
<path d="M2.625 5.75V5.375C2.625 5.27554 2.66451 5.18016 2.73483 5.10984C2.80516 5.03951 2.90054 5 3 5C3.09946 5 3.19484 5.03951 3.26517 5.10984C3.33549 5.18016 3.375 5.27554 3.375 5.375V5.75H3.75C3.84946 5.75 3.94484 5.78951 4.01516 5.85984C4.08549 5.93016 4.125 6.02554 4.125 6.125C4.125 6.22446 4.08549 6.31984 4.01516 6.39016C3.94484 6.46049 3.84946 6.5 3.75 6.5H2.25C2.15054 6.5 2.05516 6.46049 1.98483 6.39016C1.91451 6.31984 1.875 6.22446 1.875 6.125C1.875 6.02554 1.91451 5.93016 1.98483 5.85984C2.05516 5.78951 2.15054 5.75 2.25 5.75H2.625ZM2.625 8V7.625C2.625 7.52554 2.66451 7.43016 2.73483 7.35984C2.80516 7.28951 2.90054 7.25 3 7.25C3.09946 7.25 3.19484 7.28951 3.26517 7.35984C3.33549 7.43016 3.375 7.52554 3.375 7.625V8H3.75C3.84946 8 3.94484 8.03951 4.01516 8.10983C4.08549 8.18016 4.125 8.27554 4.125 8.375C4.125 8.47446 4.08549 8.56984 4.01516 8.64017C3.94484 8.71049 3.84946 8.75 3.75 8.75H2.25C2.15054 8.75 2.05516 8.71049 1.98483 8.64017C1.91451 8.56984 1.875 8.47446 1.875 8.375C1.875 8.27554 1.91451 8.18016 1.98483 8.10983C2.05516 8.03951 2.15054 8 2.25 8H2.625ZM2.625 10.25V9.875C2.625 9.77554 2.66451 9.68016 2.73483 9.60983C2.80516 9.53951 2.90054 9.5 3 9.5C3.09946 9.5 3.19484 9.53951 3.26517 9.60983C3.33549 9.68016 3.375 9.77554 3.375 9.875V10.25H3.75C3.84946 10.25 3.94484 10.2895 4.01516 10.3598C4.08549 10.4302 4.125 10.5255 4.125 10.625C4.125 10.7245 4.08549 10.8198 4.01516 10.8902C3.94484 10.9605 3.84946 11 3.75 11H2.25C2.15054 11 2.05516 10.9605 1.98483 10.8902C1.91451 10.8198 1.875 10.7245 1.875 10.625C1.875 10.5255 1.91451 10.4302 1.98483 10.3598C2.05516 10.2895 2.15054 10.25 2.25 10.25H2.625Z" fill="#FF8642" stroke="#FF8642" stroke-width="0.2"/>
</svg>
