<svg width="12" height="12" viewBox="0 0 12 12" fill="none" xmlns="http://www.w3.org/2000/svg">
<path d="M1.16025 3.55756C2.01993 2.62883 2.70832 1.5952 2.62429 0.458194C2.61621 0.342489 2.61783 0.226783 2.60975 0.11262C2.6049 0.0570815 2.64853 0.0092565 2.70832 0.00462827C2.74387 0.00308553 2.77781 0 2.81174 0C5.40048 0 7.4996 1.913 7.4996 4.27185C7.4996 4.44927 7.48667 4.62206 7.46243 4.7933C7.4495 4.88741 7.56585 4.94295 7.63695 4.87661C8.38352 4.18855 8.87638 3.2737 8.97495 2.25086C8.98142 2.17989 9.06383 2.13824 9.1317 2.17527C10.8511 3.13948 12 4.86427 12 6.83898C12 9.09601 10.4988 11.0337 8.35605 11.8683C7.96822 12.0195 7.53676 12.0411 7.13278 11.93C6.20684 11.677 5.331 11.2096 4.59736 10.5292C4.32265 10.2731 4.08349 9.99697 3.8718 9.70848C3.82332 9.6406 3.71505 9.65602 3.6892 9.73162C3.47105 10.3348 3.36763 10.9643 3.37732 11.5953C3.37894 11.6693 3.29814 11.7187 3.22704 11.6863C1.31215 10.7714 0 8.9479 0 6.83898C0 5.66341 0.389442 4.53258 1.08268 3.64087" fill="#ffffff"/>
</svg>
