<svg width="16" height="16" viewBox="0 0 16 16" fill="none" xmlns="http://www.w3.org/2000/svg">
<path d="M12.2632 2.6H11.9474C11.6947 2.6 11.4737 2.81 11.4737 3.05C11.4737 3.29 11.6947 3.5 11.9474 3.5H12.2632C12.7053 3.5 13.0526 3.83 13.0526 4.25V4.7H11.1579V2.45C11.1579 2.21 10.9368 2 10.6842 2C10.4316 2 10.2105 2.21 10.2105 2.45V4.7H5.78947V2.45C5.78947 2.21 5.56842 2 5.31579 2C5.06316 2 4.84211 2.21 4.84211 2.45V4.7H2.94737V4.25C2.94737 3.83 3.29474 3.5 3.73684 3.5H4.05263C4.30526 3.5 4.52632 3.29 4.52632 3.05C4.52632 2.81 4.30526 2.6 4.05263 2.6H3.73684C2.78947 2.6 2 3.35 2 4.25V11.75C2 12.98 3.07368 14 4.36842 14H11.6316C12.9263 14 14 12.98 14 11.75V4.25C14 3.35 13.2105 2.6 12.2632 2.6ZM11.6316 13.1H4.36842C3.57895 13.1 2.94737 12.5 2.94737 11.75V5.6H13.0526V11.75C13.0526 12.5 12.4211 13.1 11.6316 13.1Z" fill="#ffffff"/>
<path d="M6.5 3.4H9.5C9.76667 3.4 10 3.19 10 2.95C10 2.71 9.76667 2.5 9.5 2.5H6.5C6.23333 2.5 6 2.71 6 2.95C6 3.19 6.23333 3.4 6.5 3.4ZM8.4 6.97C8.23333 6.88 8.03333 6.91 7.86667 7L6.53333 7.9C6.3 8.05 6.26667 8.32 6.43333 8.53C6.6 8.74 6.9 8.77 7.13333 8.62L7.66667 8.26V11.46C7.66667 11.7 7.9 11.91 8.16667 11.91C8.43333 11.91 8.66667 11.7 8.66667 11.46V7.36C8.66667 7.18 8.56667 7.03 8.4 6.97Z" fill="#ffffff"/>
</svg>
