<svg width="16" height="16" viewBox="0 0 16 16" fill="none" xmlns="http://www.w3.org/2000/svg">
<path d="M12.2632 2.6H11.9474C11.6947 2.6 11.4737 2.81 11.4737 3.05C11.4737 3.29 11.6947 3.5 11.9474 3.5H12.2632C12.7053 3.5 13.0526 3.83 13.0526 4.25V4.7H11.1579V2.45C11.1579 2.21 10.9368 2 10.6842 2C10.4316 2 10.2105 2.21 10.2105 2.45V4.7H5.78947V2.45C5.78947 2.21 5.56842 2 5.31579 2C5.06316 2 4.84211 2.21 4.84211 2.45V4.7H2.94737V4.25C2.94737 3.83 3.29474 3.5 3.73684 3.5H4.05263C4.30526 3.5 4.52632 3.29 4.52632 3.05C4.52632 2.81 4.30526 2.6 4.05263 2.6H3.73684C2.78947 2.6 2 3.35 2 4.25V11.75C2 12.98 3.07368 14 4.36842 14H11.6316C12.9263 14 14 12.98 14 11.75V4.25C14 3.35 13.2105 2.6 12.2632 2.6ZM11.6316 13.1H4.36842C3.57895 13.1 2.94737 12.5 2.94737 11.75V5.6H13.0526V11.75C13.0526 12.5 12.4211 13.1 11.6316 13.1Z" fill="#FF8642"/>
<path d="M7.92192 12.0187C7.64692 12.0187 7.42036 11.7937 7.42036 11.5171C7.42036 11.5171 7.41099 10.6905 7.57661 9.82334C7.71567 9.09521 8.08286 8.43271 8.37192 7.99678H6.68442C6.40942 7.99678 6.18286 7.77178 6.18286 7.49521C6.18286 7.22021 6.40786 6.99365 6.68442 6.99365H9.31724C9.59224 6.99365 9.8188 7.21865 9.8188 7.49521V7.5124V7.53428L9.81411 7.5624C9.80317 7.64678 9.77036 7.72334 9.72349 7.78896C9.64067 7.92021 9.5188 8.03115 9.39849 8.2124C9.07974 8.69209 8.7063 9.30459 8.57974 9.82334C8.44224 10.5421 8.42349 11.5171 8.42349 11.5171C8.42349 11.7921 8.19849 12.0187 7.92192 12.0187Z" fill="#FF8642"/>
<path d="M6.5 3.4H9.5C9.76667 3.4 10 3.19 10 2.95C10 2.71 9.76667 2.5 9.5 2.5H6.5C6.23333 2.5 6 2.71 6 2.95C6 3.19 6.23333 3.4 6.5 3.4Z" fill="#FF8642"/>
</svg>
