<svg width="16" height="16" viewBox="0 0 16 16" fill="none" xmlns="http://www.w3.org/2000/svg">
<path d="M15.5965 3.47411C15.5291 3.39936 15.44 3.3476 15.3417 3.32609C15.2434 3.30458 15.1408 3.3144 15.0484 3.35418L15.0228 3.36526C15.1283 3.17982 15.2174 2.98522 15.2883 2.78389C15.3162 2.69667 15.3154 2.60281 15.2861 2.51604C15.2568 2.42928 15.2005 2.35418 15.1254 2.30174C15.0494 2.24602 14.9591 2.2132 14.865 2.20714C14.771 2.20108 14.6772 2.22204 14.5946 2.26754C14.1284 2.53053 13.6265 2.72464 13.1043 2.84458C12.4534 2.30025 11.6321 2.00175 10.7836 2.00118C9.89741 1.97768 9.03794 2.30582 8.39292 2.91391C7.74789 3.52201 7.36973 4.36064 7.34102 5.24664C7.34102 5.29625 7.34969 5.34586 7.34969 5.39644C5.33355 5.16904 3.47426 4.19925 2.13407 2.67599C2.08439 2.61948 2.02207 2.5755 1.95218 2.54762C1.88229 2.51975 1.8068 2.50878 1.73187 2.5156C1.65753 2.52032 1.58538 2.5426 1.52132 2.58062C1.45727 2.61863 1.40314 2.67129 1.36338 2.73427C1.0633 3.22571 0.903387 3.78987 0.900969 4.36568C0.898691 4.90986 1.04045 5.44495 1.31184 5.91664C1.23959 5.92531 1.16975 5.94843 1.10616 5.98407C1.03649 6.02507 0.978587 6.08337 0.938079 6.15333C0.89757 6.22329 0.875827 6.30254 0.874958 6.38337C0.879967 6.85717 0.990112 7.32394 1.19744 7.75C1.40477 8.17606 1.70411 8.55077 2.07386 8.84709C2.00766 8.90302 1.95936 8.97716 1.93495 9.06032C1.91055 9.14347 1.91111 9.23195 1.93658 9.31479C2.09981 9.77813 2.36331 10.1997 2.70827 10.5495C3.05322 10.8993 3.47113 11.1686 3.93218 11.3383C2.96253 11.791 1.88718 11.9688 0.823419 11.8522C0.718992 11.8374 0.612597 11.8578 0.521077 11.9102C0.429556 11.9626 0.358141 12.0441 0.318137 12.1417C0.284975 12.2372 0.285583 12.3412 0.31986 12.4363C0.354137 12.5314 0.420008 12.6119 0.506474 12.6643C1.95716 13.5361 3.61824 13.9956 5.31074 13.9932C10.0495 14.1801 14.0426 10.4901 14.2295 5.75095C14.2319 5.69218 14.2334 5.63342 14.2348 5.57466V5.4263C14.7711 5.02845 15.2421 4.54938 15.6307 4.00635C15.6862 3.92691 15.7131 3.83096 15.7069 3.73424C15.7007 3.63753 15.6618 3.5458 15.5965 3.47411ZM13.4815 4.84927C13.42 4.89107 13.3699 4.94743 13.3355 5.01332C13.3011 5.07921 13.2836 5.15258 13.2845 5.22689C13.2931 5.34057 13.2931 5.45713 13.2931 5.56936C13.2204 9.80705 9.72582 13.183 5.488 13.1103C5.43195 13.1094 5.37591 13.1078 5.3199 13.1055C4.41145 13.1074 3.50926 12.961 2.64802 12.672C3.66164 12.4976 4.62057 12.0891 5.4485 11.4789C5.52418 11.4255 5.58025 11.3488 5.60809 11.2605C5.63594 11.1722 5.63402 11.0771 5.60264 10.99C5.57032 10.9004 5.51088 10.8231 5.43259 10.7688C5.3543 10.7145 5.26103 10.6859 5.16576 10.6871C4.77638 10.6819 4.39336 10.5876 4.04604 10.4115C3.69871 10.2355 3.3963 9.98222 3.16197 9.67122C3.39617 9.65671 3.62844 9.61977 3.85559 9.56092C3.95351 9.53685 4.04011 9.4797 4.10072 9.39912C4.16134 9.31855 4.19225 9.2195 4.18823 9.11875C4.18421 9.018 4.1455 8.92174 4.07865 8.84625C4.0118 8.77077 3.92092 8.7207 3.82139 8.70452C3.38304 8.62787 2.97408 8.43259 2.6389 8.13989C2.30373 7.84718 2.05517 7.46824 1.9202 7.04422C2.16965 7.10654 2.42519 7.14127 2.68222 7.14777C2.8826 7.14874 3.06275 7.02688 3.13596 6.84047C3.16684 6.74768 3.16499 6.64712 3.13072 6.55553C3.09645 6.46394 3.03183 6.38686 2.94762 6.33713C2.61089 6.1307 2.3321 5.84212 2.1374 5.49848C1.9427 5.15483 1.83846 4.76737 1.83446 4.37242C1.83735 4.17349 1.86577 3.97553 1.9202 3.78431C3.5258 5.32271 5.6338 6.22826 7.85497 6.33376C7.92851 6.34285 8.00316 6.33327 8.07202 6.30592C8.14088 6.27856 8.20174 6.2343 8.24899 6.17722C8.29591 6.12633 8.32976 6.0648 8.34764 5.99793C8.36551 5.93106 8.36686 5.86084 8.35159 5.79333C8.28188 5.48402 8.27523 5.16382 8.33203 4.85188C8.38883 4.53994 8.50792 4.24264 8.68219 3.97775C8.85645 3.71285 9.08231 3.4858 9.34629 3.31013C9.61026 3.13447 9.90693 3.01381 10.2186 2.95536C10.4043 2.91438 10.5939 2.89371 10.7841 2.89371C11.1222 2.89201 11.4573 2.95694 11.7703 3.08479C12.0833 3.21264 12.368 3.40091 12.6082 3.63884C12.7233 3.75155 12.8866 3.80116 13.0451 3.77082C13.2165 3.73951 13.3875 3.70098 13.559 3.65522C13.4742 3.71832 13.3856 3.77515 13.2936 3.82669C13.2036 3.8761 13.1337 3.95548 13.0962 4.05104C13.0586 4.1466 13.0557 4.2523 13.0879 4.34978C13.1272 4.44832 13.1982 4.53096 13.2897 4.58461C13.3813 4.63826 13.488 4.65986 13.5932 4.646C13.6611 4.63782 13.7382 4.62818 13.8071 4.61711C13.7045 4.70284 13.5932 4.78087 13.4815 4.85601V4.84927Z" fill="#1A130F"/>
</svg>
