<svg width="181" height="124" viewBox="0 0 181 124" fill="none" xmlns="http://www.w3.org/2000/svg">
<g clip-path="url(#clip0_18_1551)">
<ellipse cx="90.9188" cy="115.116" rx="89.5814" ry="36.4186" fill="url(#paint0_linear_18_1551)"/>
<path fill-rule="evenodd" clip-rule="evenodd" d="M72.1968 22.0606C72.1968 17.9993 75.4891 14.707 79.5504 14.707H92.7867H122.569H135.805C139.866 14.707 143.158 17.9993 143.158 22.0606V31.9878H129.922V79.0504C129.922 83.1117 126.63 86.4039 122.569 86.4039H79.5504C75.4891 86.4039 72.1968 83.1117 72.1968 79.0504V22.0606ZM57.044 37.3261C58.3568 34.6145 59.0683 31.5027 59.513 27.1892L59.8787 27.2269C59.432 31.5602 58.7142 34.7199 57.375 37.4863C56.0354 40.2535 54.0806 42.6135 51.1818 45.3577L50.9291 45.0907C53.8119 42.3616 55.7317 40.037 57.044 37.3261ZM58.366 47.2864C59.9187 45.3502 61.0295 43.1093 61.978 39.9764L62.3299 40.083C61.3718 43.2476 60.2424 45.5342 58.6528 47.5164C57.0651 49.4962 55.0258 51.1627 52.2639 53.096L52.0531 52.7948C54.8063 50.8675 56.8114 49.2249 58.366 47.2864ZM47.8818 51.4733C48.0581 51.574 48.1194 51.7986 48.0186 51.9749L46.9127 53.9102C46.8785 53.9701 46.83 54.0167 46.774 54.0482C45.6556 56.0138 44.6609 57.325 42.9665 59.3797C45.2138 57.6159 46.4653 56.4191 47.9145 54.2112C48.3857 54.8293 48.6654 55.6011 48.6654 56.4383C48.6654 60.7396 41.1805 61.8967 38.0029 61.7696C39.3464 60.8395 39.9954 59.1019 40.6314 57.3992C41.5098 55.0472 42.3636 52.7615 44.9887 52.7615C45.5388 52.7615 46.0608 52.8823 46.5294 53.0989L47.3801 51.6101C47.4809 51.4338 47.7055 51.3725 47.8818 51.4733Z" fill="url(#paint1_linear_18_1551)"/>
<rect x="80.6538" y="30.1494" width="40.8121" height="4.77979" rx="2.3899" fill="white"/>
<rect x="80.6538" y="42.2827" width="40.8121" height="4.77979" rx="2.3899" fill="white"/>
<rect x="80.6538" y="54.416" width="25.3697" height="4.77979" rx="2.3899" fill="white"/>
<path d="M129.922 22.7959C129.922 19.75 132.392 17.2808 135.438 17.2808C138.483 17.2808 140.953 19.75 140.953 22.7959V31.9878H129.922V22.7959Z" fill="#CACACA"/>
<path fill-rule="evenodd" clip-rule="evenodd" d="M113.376 70.2263H62.2695V81.6243C62.2695 84.2641 64.4095 86.4041 67.0493 86.4041H119.995V86.3944C116.307 86.2033 113.376 83.153 113.376 79.4181V70.2263Z" fill="url(#paint2_linear_18_1551)"/>
</g>
<defs>
<linearGradient id="paint0_linear_18_1551" x1="90.9188" y1="78.6978" x2="90.7825" y2="124.3" gradientUnits="userSpaceOnUse">
<stop stop-color="#EDEBEA"/>
<stop offset="1" stop-color="#F5F6F8" stop-opacity="0"/>
</linearGradient>
<linearGradient id="paint1_linear_18_1551" x1="90.5807" y1="14.707" x2="90.5807" y2="86.4039" gradientUnits="userSpaceOnUse">
<stop stop-color="#E3E3E3"/>
<stop offset="1" stop-color="#F1F1F1"/>
</linearGradient>
<linearGradient id="paint2_linear_18_1551" x1="91.1321" y1="70.2263" x2="91.1321" y2="86.4041" gradientUnits="userSpaceOnUse">
<stop stop-color="#F9F9F9"/>
<stop offset="1" stop-color="#E7E7E7"/>
</linearGradient>
<clipPath id="clip0_18_1551">
<rect width="180" height="124" fill="white" transform="translate(0.5)"/>
</clipPath>
</defs>
</svg>
