<svg width="16" height="16" viewBox="0 0 16 16" fill="none" xmlns="http://www.w3.org/2000/svg">
<path d="M10.8059 9.75936C11.5321 8.76828 11.8573 7.5395 11.7166 6.31887C11.5758 5.09824 10.9794 3.97577 10.0467 3.17603C9.11402 2.37629 7.91379 1.95826 6.68615 2.00557C5.45851 2.05288 4.294 2.56204 3.42559 3.43119C2.55719 4.30034 2.04893 5.46538 2.00251 6.69322C1.95608 7.92107 2.37491 9.12117 3.17521 10.0534C3.9755 10.9857 5.09824 11.5814 6.3188 11.7213C7.53936 11.8612 8.76773 11.535 9.75816 10.808H9.75741C9.7799 10.838 9.8039 10.8665 9.8309 10.8942L12.7183 13.782C12.8589 13.9228 13.0497 14.0019 13.2486 14.002C13.4476 14.002 13.6384 13.923 13.7791 13.7824C13.9199 13.6418 13.999 13.451 13.999 13.252C13.9991 13.053 13.9201 12.8622 13.7795 12.7214L10.8921 9.83362C10.8653 9.80648 10.8365 9.78215 10.8059 9.75936ZM10.9994 6.87607C10.9994 7.41783 10.8927 7.95428 10.6854 8.4548C10.4781 8.95532 10.1742 9.4101 9.79122 9.79318C9.40819 10.1763 8.95347 10.4801 8.45302 10.6875C7.95257 10.8948 7.4162 11.0015 6.87451 11.0015C6.33283 11.0015 5.79645 10.8948 5.296 10.6875C4.79555 10.4801 4.34084 10.1763 3.95781 9.79318C3.57478 9.4101 3.27095 8.95532 3.06365 8.4548C2.85636 7.95428 2.74967 7.41783 2.74967 6.87607C2.74967 5.78194 3.18425 4.73262 3.95781 3.95895C4.73137 3.18528 5.78054 2.75064 6.87451 2.75064C7.96849 2.75064 9.01766 3.18528 9.79122 3.95895C10.5648 4.73262 10.9994 5.78194 10.9994 6.87607Z" fill="#857C77"/>
</svg>
