<svg width="267" height="341" viewBox="0 0 267 341" fill="none" xmlns="http://www.w3.org/2000/svg">
<path d="M222.832 13.1811C220.958 15.3162 221.863 18.5188 224.313 19.9554C226.793 21.409 229.895 20.4073 232.194 18.6823C235.276 16.3703 239.26 15.9697 243.528 18.4712C248.152 21.1819 251.014 26.0168 247.698 31.6745C245.147 36.0266 241.447 36.5476 235.679 37.2598C229.176 37.9504 223.283 39.7589 219.815 46.2635C218.807 48.0389 219.412 50.2954 221.173 51.328L224.379 53.2075C225.725 53.9964 227.456 53.5449 228.245 52.1989C231.128 47.2811 233.811 46.9242 241.023 46.0059C246.996 45.2384 253.344 44.2232 257.681 36.8247C263.752 26.4668 258.079 16.417 248.659 10.8951C240.812 6.29517 230.272 4.70329 222.832 13.1811ZM208.262 61.3605C206.119 65.0162 207.406 69.3961 211.346 71.7053C215.456 74.1148 219.864 73.0731 222.007 69.4174C224.226 65.6311 222.956 61.3198 218.846 58.9102C214.906 56.6011 210.481 57.5742 208.262 61.3605Z" fill="#EFEFEF"/>
<path d="M42.7886 66.0815L37.2071 60.5H175C185.217 60.5 193.5 68.7827 193.5 79V254C193.5 264.217 185.217 272.5 175 272.5H67C56.7827 272.5 48.5 264.217 48.5 254V79.8701C48.5 74.6983 46.4455 69.7384 42.7886 66.0815Z" fill="white" stroke="#8F8F8F"/>
<rect x="72" y="120" width="88" height="19" fill="#EFEFEF"/>
<rect x="73" y="160" width="42" height="9" fill="#EFEFEF"/>
<rect x="72" y="112" width="98" height="27" stroke="#8F8F8F"/>
<rect x="73" y="156" width="47" height="13" stroke="#8F8F8F"/>
<mask id="path-7-inside-1_614_2514" fill="white">
<path fill-rule="evenodd" clip-rule="evenodd" d="M66.9997 234C66.9157 234 66.8318 234.001 66.748 234.002C76.8509 234.135 84.9997 242.366 84.9997 252.5V254.5C84.9997 264.634 76.8509 272.865 66.748 272.998C66.8318 272.999 66.9157 273 66.9997 273H198C208.493 273 217 264.493 217 254V253C217 242.507 208.493 234 198 234H66.9997Z"/>
</mask>
<path fill-rule="evenodd" clip-rule="evenodd" d="M66.9997 234C66.9157 234 66.8318 234.001 66.748 234.002C76.8509 234.135 84.9997 242.366 84.9997 252.5V254.5C84.9997 264.634 76.8509 272.865 66.748 272.998C66.8318 272.999 66.9157 273 66.9997 273H198C208.493 273 217 264.493 217 254V253C217 242.507 208.493 234 198 234H66.9997Z" fill="#EFEFEF"/>
<path d="M66.748 234.002L66.7351 233.002L66.7349 235.002L66.748 234.002ZM66.748 272.998L66.7349 271.998L66.7351 273.998L66.748 272.998ZM66.761 235.002C66.8405 235.001 66.92 235 66.9997 235V233C66.9114 233 66.8232 233.001 66.7351 233.002L66.761 235.002ZM66.7349 235.002C76.2913 235.127 83.9997 242.914 83.9997 252.5H85.9997C85.9997 241.818 77.4104 233.142 66.7612 233.002L66.7349 235.002ZM83.9997 252.5V254.5H85.9997V252.5H83.9997ZM83.9997 254.5C83.9997 264.086 76.2913 271.873 66.7349 271.998L66.7612 273.998C77.4104 273.858 85.9997 265.182 85.9997 254.5H83.9997ZM66.9997 272C66.92 272 66.8405 271.999 66.761 271.998L66.7351 273.998C66.8232 273.999 66.9114 274 66.9997 274V272ZM198 272H66.9997V274H198V272ZM216 254C216 263.941 207.941 272 198 272V274C209.045 274 218 265.046 218 254H216ZM216 253V254H218V253H216ZM198 235C207.941 235 216 243.059 216 253H218C218 241.954 209.045 233 198 233V235ZM66.9997 235H198V233H66.9997V235Z" fill="#8F8F8F" mask="url(#path-7-inside-1_614_2514)"/>
<circle cx="188.5" cy="180.5" r="36.5" fill="white" stroke="#8F8F8F" stroke-width="2"/>
<circle cx="188.5" cy="180.5" r="29" fill="white" stroke="#8F8F8F"/>
<circle cx="191" cy="183" r="25" fill="#EFEFEF"/>
<path d="M20.5 74.5C20.5 66.768 26.768 60.5 34.5 60.5C42.232 60.5 48.5 66.768 48.5 74.5V113.5H11.6647L16.375 108.542C19.0233 105.754 20.5 102.056 20.5 98.2105V74.5Z" fill="#EFEFEF" stroke="#8F8F8F"/>
<path d="M20.5909 103.455C20.5908 109.003 16.0933 113.5 10.5454 113.5C4.99742 113.5 0.499909 109.002 0.499909 103.455L0.49991 93.5L20.5909 93.5L20.5909 103.455Z" fill="white" stroke="#8F8F8F"/>
<rect x="72" y="190" width="50" height="2" fill="#BDBDBD"/>
<rect x="72" y="198" width="26" height="2" fill="#BDBDBD"/>
<rect x="211.293" y="215.192" width="15.6202" height="34.3526" rx="7.81008" transform="rotate(-45 211.293 215.192)" fill="white" stroke="#8F8F8F"/>
<mask id="mask0_614_2514" style="mask-type:alpha" maskUnits="userSpaceOnUse" x="215" y="207" width="28" height="29">
<rect x="212" y="215.192" width="14.6202" height="33.3526" rx="7.31008" transform="rotate(-45 212 215.192)" fill="#D9D9D9"/>
</mask>
<g mask="url(#mask0_614_2514)">
<rect x="218.548" y="208.645" width="5.36027" height="33.3526" rx="2.68014" transform="rotate(-45 218.548 208.645)" fill="#EFEFEF"/>
</g>
<rect x="226.557" y="229.748" width="14.6202" height="12.7673" rx="6.38364" transform="rotate(-45 226.557 229.748)" fill="#8F8F8F"/>
<circle cx="217.5" cy="130.5" r="5.5" stroke="#EFEFEF" stroke-width="2"/>
<rect x="12.9287" y="143" width="8.53569" height="8.53569" transform="rotate(-45 12.9287 143)" fill="#EFEFEF"/>
<path d="M31.0005 39.0356L37.5 32.5L40.0005 41.5L31.0005 39.0356Z" fill="#EFEFEF"/>
<ellipse cx="115" cy="332" rx="45" ry="9" fill="#BDBDBD"/>
</svg>
