<svg width="16" height="16" viewBox="0 0 16 16" fill="none" xmlns="http://www.w3.org/2000/svg">
<g id="chevron-expand 1">
<path id="Vector" fill-rule="evenodd" clip-rule="evenodd" d="M3.64592 10.3551C3.69236 10.4016 3.74754 10.4386 3.80828 10.4638C3.86903 10.489 3.93415 10.502 3.99992 10.502C4.06568 10.502 4.13081 10.489 4.19155 10.4638C4.2523 10.4386 4.30747 10.4016 4.35392 10.3551L7.99992 6.70806L11.6459 10.3551C11.7398 10.4489 11.8671 10.5017 11.9999 10.5017C12.1327 10.5017 12.26 10.4489 12.3539 10.3551C12.4478 10.2612 12.5005 10.1338 12.5005 10.0011C12.5005 9.86828 12.4478 9.74095 12.3539 9.64706L8.35392 5.64706C8.30747 5.6005 8.2523 5.56355 8.19155 5.53835C8.13081 5.51314 8.06568 5.50017 7.99992 5.50017C7.93415 5.50017 7.86903 5.51314 7.80828 5.53835C7.74754 5.56355 7.69236 5.6005 7.64592 5.64706L3.64592 9.64706C3.59935 9.69351 3.56241 9.74868 3.5372 9.80943C3.512 9.87017 3.49902 9.93529 3.49902 10.0011C3.49902 10.0668 3.512 10.1319 3.5372 10.1927C3.56241 10.2534 3.59935 10.3086 3.64592 10.3551Z" fill="#1A130F"/>
</g>
</svg>
