<svg width="16" height="16" viewBox="0 0 16 16" fill="none" xmlns="http://www.w3.org/2000/svg">
<g id="chevron-expand 1">
<path id="Vector" fill-rule="evenodd" clip-rule="evenodd" d="M3.64592 5.64689C3.69236 5.60033 3.74754 5.56339 3.80828 5.53818C3.86903 5.51297 3.93415 5.5 3.99992 5.5C4.06568 5.5 4.13081 5.51297 4.19155 5.53818C4.2523 5.56339 4.30747 5.60033 4.35392 5.64689L7.99992 9.29389L11.6459 5.64689C11.7398 5.55301 11.8671 5.50026 11.9999 5.50026C12.1327 5.50026 12.26 5.55301 12.3539 5.64689C12.4478 5.74078 12.5005 5.86812 12.5005 6.00089C12.5005 6.13367 12.4478 6.26101 12.3539 6.35489L8.35392 10.3549C8.30747 10.4015 8.2523 10.4384 8.19155 10.4636C8.13081 10.4888 8.06568 10.5018 7.99992 10.5018C7.93415 10.5018 7.86903 10.4888 7.80828 10.4636C7.74754 10.4384 7.69236 10.4015 7.64592 10.3549L3.64592 6.35489C3.59935 6.30845 3.56241 6.25327 3.5372 6.19253C3.512 6.13178 3.49902 6.06666 3.49902 6.00089C3.49902 5.93513 3.512 5.87001 3.5372 5.80926C3.56241 5.74852 3.59935 5.69334 3.64592 5.64689Z" fill="#1A130F"/>
</g>
</svg>
