<svg width="20" height="20" viewBox="0 0 20 20" fill="none" xmlns="http://www.w3.org/2000/svg">
<path fill-rule="evenodd" clip-rule="evenodd" d="M10.4426 2.0574C10.5008 2.11545 10.547 2.18442 10.5785 2.26035C10.61 2.33629 10.6263 2.41769 10.6263 2.4999C10.6263 2.58211 10.61 2.66351 10.5785 2.73944C10.547 2.81537 10.5008 2.88434 10.4426 2.9424L3.38389 9.9999L10.4426 17.0574C10.56 17.1748 10.6259 17.3339 10.6259 17.4999C10.6259 17.6659 10.56 17.825 10.4426 17.9424C10.3253 18.0598 10.1661 18.1257 10.0001 18.1257C9.83417 18.1257 9.675 18.0598 9.55764 17.9424L2.05764 10.4424C1.99944 10.3843 1.95326 10.3154 1.92175 10.2394C1.89024 10.1635 1.87402 10.0821 1.87402 9.9999C1.87402 9.91769 1.89024 9.83629 1.92175 9.76035C1.95326 9.68442 1.99944 9.61545 2.05764 9.5574L9.55764 2.0574C9.6157 1.99919 9.68467 1.95301 9.7606 1.92151C9.83653 1.89 9.91793 1.87378 10.0001 1.87378C10.0823 1.87378 10.1637 1.89 10.2397 1.92151C10.3156 1.95301 10.3846 1.99919 10.4426 2.0574Z" fill="black"/>
<path fill-rule="evenodd" clip-rule="evenodd" d="M15.4426 2.0574C15.5008 2.11545 15.547 2.18442 15.5785 2.26035C15.61 2.33629 15.6263 2.41769 15.6263 2.4999C15.6263 2.58211 15.61 2.66351 15.5785 2.73944C15.547 2.81537 15.5008 2.88434 15.4426 2.9424L8.38389 9.9999L15.4426 17.0574C15.5007 17.1155 15.5468 17.1845 15.5783 17.2604C15.6097 17.3363 15.6259 17.4177 15.6259 17.4999C15.6259 17.5821 15.6097 17.6635 15.5783 17.7394C15.5468 17.8153 15.5007 17.8843 15.4426 17.9424C15.3845 18.0005 15.3155 18.0466 15.2396 18.0781C15.1637 18.1095 15.0823 18.1257 15.0001 18.1257C14.918 18.1257 14.8366 18.1095 14.7607 18.0781C14.6847 18.0466 14.6157 18.0005 14.5576 17.9424L7.05764 10.4424C6.99944 10.3843 6.95326 10.3154 6.92175 10.2394C6.89024 10.1635 6.87402 10.0821 6.87402 9.9999C6.87402 9.91769 6.89024 9.83629 6.92175 9.76035C6.95326 9.68442 6.99944 9.61545 7.05764 9.5574L14.5576 2.0574C14.6157 1.99919 14.6847 1.95301 14.7606 1.92151C14.8365 1.89 14.9179 1.87378 15.0001 1.87378C15.0823 1.87378 15.1637 1.89 15.2397 1.92151C15.3156 1.95301 15.3846 1.99919 15.4426 2.0574Z" fill="black"/>
</svg>
