<svg width="10" height="18" viewBox="0 0 10 18" fill="none" xmlns="http://www.w3.org/2000/svg">
<path fill-rule="evenodd" clip-rule="evenodd" d="M9.44264 1.05749C9.50084 1.11555 9.54702 1.18451 9.57853 1.26045C9.61004 1.33638 9.62626 1.41778 9.62626 1.49999C9.62626 1.5822 9.61004 1.6636 9.57853 1.73953C9.54702 1.81546 9.50084 1.88443 9.44264 1.94249L2.38389 8.99999L9.44264 16.0575C9.56 16.1748 9.62593 16.334 9.62593 16.5C9.62593 16.666 9.56 16.8251 9.44264 16.9425C9.32528 17.0598 9.16611 17.1258 9.00014 17.1258C8.83417 17.1258 8.675 17.0598 8.55764 16.9425L1.05764 9.44249C0.999437 9.38443 0.953258 9.31546 0.92175 9.23953C0.890242 9.1636 0.874023 9.0822 0.874023 8.99999C0.874023 8.91778 0.890242 8.83638 0.92175 8.76045C0.953258 8.68451 0.999437 8.61554 1.05764 8.55749L8.55764 1.05749C8.6157 0.999284 8.68467 0.953106 8.7606 0.921597C8.83653 0.890089 8.91793 0.873871 9.00014 0.873871C9.08235 0.873871 9.16375 0.890089 9.23968 0.921597C9.31561 0.953106 9.38458 0.999284 9.44264 1.05749Z" fill="#857C77"/>
</svg>
