<svg width="20" height="20" viewBox="0 0 20 20" fill="none" xmlns="http://www.w3.org/2000/svg">
<g id="blacklist">
<path id="Union" fill-rule="evenodd" clip-rule="evenodd" d="M3 4.5C3 3.11929 4.11929 2 5.5 2H13.5C14.8807 2 16 3.11929 16 4.5V7.85714C16 8.13329 15.7761 8.35714 15.5 8.35714C15.2239 8.35714 15 8.13329 15 7.85714V4.5C15 3.67157 14.3284 3 13.5 3H5.5C4.67157 3 4 3.67157 4 4.5V15.5C4 16.3284 4.67157 17 5.5 17H7.67391C7.95006 17 8.17391 17.2239 8.17391 17.5C8.17391 17.7761 7.95006 18 7.67391 18H5.5C4.11929 18 3 16.8807 3 15.5V4.5ZM5.5 6.5C5.5 6.22386 5.72386 6 6 6H12C12.2761 6 12.5 6.22386 12.5 6.5C12.5 6.77614 12.2761 7 12 7H6C5.72386 7 5.5 6.77614 5.5 6.5ZM11.4072 16.5427C11.8687 16.8324 12.4148 17 13 17C14.6569 17 16 15.6569 16 14C16 13.4148 15.8324 12.8687 15.5427 12.4072L11.4072 16.5427ZM14.8765 11.6592C14.3626 11.2467 13.7101 11 13 11C11.3431 11 10 12.3431 10 14C10 14.7101 10.2467 15.3626 10.6592 15.8765L14.8765 11.6592ZM5.5 9.5C5.5 9.22386 5.72386 9 6 9H9C9.27614 9 9.5 9.22386 9.5 9.5C9.5 9.77614 9.27614 10 9 10H6C5.72386 10 5.5 9.77614 5.5 9.5ZM17 14C17 16.2091 15.2091 18 13 18C10.7909 18 9 16.2091 9 14C9 11.7909 10.7909 10 13 10C15.2091 10 17 11.7909 17 14Z" fill="#1A130F"/>
</g>
</svg>
