<svg width="20" height="20" viewBox="0 0 20 20" fill="none" xmlns="http://www.w3.org/2000/svg">
<path d="M4 6.00004C4 5.46959 4.21071 4.96088 4.58579 4.5858C4.96086 4.21072 5.46957 4 6 4H12C12.5304 4 13.0391 4.21072 13.4142 4.5858C13.7893 4.96088 14 5.46959 14 6.00004V17.5002C14 17.5907 13.9754 17.6794 13.9289 17.757C13.8824 17.8346 13.8157 17.8981 13.736 17.9408C13.6563 17.9835 13.5664 18.0038 13.4761 17.9994C13.3858 17.9951 13.2983 17.9664 13.223 17.9163L9 15.1012L4.777 17.9163C4.70171 17.9664 4.61423 17.9951 4.52389 17.9994C4.43355 18.0038 4.34373 17.9835 4.264 17.9408C4.18427 17.8981 4.1176 17.8346 4.07111 17.757C4.02462 17.6794 4.00005 17.5907 4 17.5002V6.00004ZM6 5.00002C5.73478 5.00002 5.48043 5.10538 5.29289 5.29292C5.10536 5.48046 5 5.73482 5 6.00004V16.5662L8.723 14.0842C8.80506 14.0296 8.90143 14.0004 9 14.0004C9.09857 14.0004 9.19494 14.0296 9.277 14.0842L13 16.5662V6.00004C13 5.73482 12.8946 5.48046 12.7071 5.29292C12.5196 5.10538 12.2652 5.00002 12 5.00002H6Z" fill="#FF8642"/>
<path d="M6 3.00002H13.9449C14.2174 3.00002 14.4788 3.10538 14.6715 3.29292C14.8642 3.48046 14.9725 3.73482 14.9725 4.00004V15.7683L15.2016 15.9163C15.279 15.9664 15.3689 15.9951 15.4617 15.9994C15.5545 16.0038 15.6468 15.9835 15.7287 15.9408C15.8107 15.8981 15.8792 15.8346 15.9269 15.757C15.9747 15.6794 16 15.5907 16 15.5002V4.00004C16 3.46959 15.7835 2.96088 15.3981 2.5858C15.0127 2.21072 14.49 2 13.9449 2H7.7797C7.41896 2.00001 7.06459 2.09243 6.75219 2.26797C6.43979 2.44351 6.18037 2.69598 6 3.00002Z" fill="#FF8642"/>
</svg>
