<svg width="16" height="16" viewBox="0 0 16 16" fill="none" xmlns="http://www.w3.org/2000/svg">
<g id="clear">
<path id="Vector" d="M11.8225 4.18354C11.5859 3.94691 11.2036 3.94691 10.967 4.18354L8 7.14448L5.03299 4.17747C4.79636 3.94084 4.41411 3.94084 4.17747 4.17747C3.94084 4.41411 3.94084 4.79636 4.17747 5.03299L7.14448 8L4.17747 10.967C3.94084 11.2036 3.94084 11.5859 4.17747 11.8225C4.41411 12.0592 4.79636 12.0592 5.03299 11.8225L8 8.85552L10.967 11.8225C11.2036 12.0592 11.5859 12.0592 11.8225 11.8225C12.0592 11.5859 12.0592 11.2036 11.8225 10.967L8.85552 8L11.8225 5.03299C12.0531 4.80243 12.0531 4.41411 11.8225 4.18354Z" fill="#7E7E7E"/>
</g>
</svg>
