<svg width="16" height="16" viewBox="0 0 16 16" fill="none" xmlns="http://www.w3.org/2000/svg">
<g clip-path="url(#clip0_170_1900)">
<path d="M14.7954 1.21521C14.3747 0.794533 13.6951 0.794533 13.2745 1.21521L7.99978 6.47911L2.7251 1.20443C2.30442 0.783746 1.62486 0.783746 1.20418 1.20443C0.783502 1.62511 0.783502 2.30467 1.20418 2.72535L6.47886 8.00003L1.20418 13.2747C0.783502 13.6954 0.783502 14.3749 1.20418 14.7956C1.62486 15.2163 2.30442 15.2163 2.7251 14.7956L7.99978 9.52095L13.2745 14.7956C13.6951 15.2163 14.3747 15.2163 14.7954 14.7956C15.2161 14.3749 15.2161 13.6954 14.7954 13.2747L9.5207 8.00003L14.7954 2.72535C15.2053 2.31545 15.2053 1.62511 14.7954 1.21521Z" fill="#7E7E7E"/>
</g>
<defs>
<clipPath id="clip0_170_1900">
<rect width="16" height="16" fill="white"/>
</clipPath>
</defs>
</svg>
