<svg width="16" height="16" viewBox="0 0 16 16" fill="none" xmlns="http://www.w3.org/2000/svg">
<path d="M6.50007 1H9.50012C9.63273 1 9.7599 1.05268 9.85367 1.14645C9.94744 1.24021 10.0001 1.36739 10.0001 1.5V2.5H6.00007V1.5C6.00007 1.36739 6.05275 1.24021 6.14652 1.14645C6.24029 1.05268 6.36746 1 6.50007 1ZM11.0001 2.5V1.5C11.0001 1.10218 10.8421 0.720644 10.5608 0.43934C10.2795 0.158035 9.89795 0 9.50012 0L6.50007 0C6.10224 0 5.72071 0.158035 5.4394 0.43934C5.15809 0.720644 5.00005 1.10218 5.00005 1.5V2.5H2.50602C2.50269 2.49997 2.49935 2.49997 2.49602 2.5H1.50001C1.3674 2.5 1.24022 2.55268 1.14645 2.64645C1.05268 2.74021 1 2.86739 1 3C1 3.13261 1.05268 3.25979 1.14645 3.35355C1.24022 3.44732 1.3674 3.5 1.50001 3.5H2.03801L2.89103 14.16C2.93125 14.6612 3.15878 15.1289 3.52831 15.4698C3.89783 15.8108 4.38224 16.0001 4.88505 16H11.1151C11.618 16.0001 12.1024 15.8108 12.4719 15.4698C12.8414 15.1289 13.0689 14.6612 13.1092 14.16L13.9622 3.5H14.5002C14.6328 3.5 14.76 3.44732 14.8537 3.35355C14.9475 3.25979 15.0002 3.13261 15.0002 3C15.0002 2.86739 14.9475 2.74021 14.8537 2.64645C14.76 2.55268 14.6328 2.5 14.5002 2.5H13.5052C13.5018 2.49997 13.4985 2.49997 13.4952 2.5H11.0001ZM12.9582 3.5L12.1122 14.08C12.092 14.3306 11.9783 14.5644 11.7935 14.7349C11.6087 14.9054 11.3665 15.0001 11.1151 15H4.88505C4.63365 15.0001 4.39144 14.9054 4.20668 14.7349C4.02192 14.5644 3.90815 14.3306 3.88804 14.08L3.04203 3.5H12.9582ZM5.47106 4.5C5.6034 4.49235 5.73335 4.53756 5.83236 4.6257C5.93137 4.71383 5.99134 4.83767 5.99907 4.97L6.49907 13.47C6.50433 13.6008 6.45809 13.7284 6.37029 13.8255C6.28249 13.9225 6.16013 13.9813 6.02948 13.9892C5.89883 13.997 5.7703 13.9533 5.67151 13.8675C5.57271 13.7816 5.51151 13.6605 5.50106 13.53L5.00005 5.03C4.99599 4.96431 5.00494 4.89847 5.02639 4.83625C5.04783 4.77403 5.08134 4.71665 5.12501 4.66741C5.16868 4.61817 5.22163 4.57804 5.28085 4.54931C5.34006 4.52058 5.40436 4.50382 5.47006 4.5H5.47106ZM10.5291 4.5C10.5948 4.50382 10.6591 4.52058 10.7183 4.54931C10.7776 4.57804 10.8305 4.61817 10.8742 4.66741C10.9178 4.71665 10.9514 4.77403 10.9728 4.83625C10.9942 4.89847 11.0032 4.96431 10.9991 5.03L10.4991 13.53C10.4965 13.5964 10.4806 13.6617 10.4524 13.7219C10.4242 13.7821 10.3843 13.8361 10.3349 13.8807C10.2856 13.9254 10.2279 13.9597 10.1652 13.9817C10.1024 14.0037 10.0359 14.013 9.96952 14.009C9.90314 14.005 9.83822 13.9878 9.77857 13.9585C9.71891 13.9291 9.66572 13.8881 9.6221 13.8379C9.57849 13.7877 9.54532 13.7293 9.52454 13.6661C9.50377 13.603 9.4958 13.5363 9.50112 13.47L10.0011 4.97C10.0089 4.83767 10.0688 4.71383 10.1678 4.6257C10.2668 4.53756 10.3968 4.49235 10.5291 4.5ZM8.0001 4.5C8.13271 4.5 8.25988 4.55268 8.35365 4.64645C8.44742 4.74021 8.5001 4.86739 8.5001 5V13.5C8.5001 13.6326 8.44742 13.7598 8.35365 13.8536C8.25988 13.9473 8.13271 14 8.0001 14C7.86749 14 7.74031 13.9473 7.64654 13.8536C7.55277 13.7598 7.50009 13.6326 7.50009 13.5V5C7.50009 4.86739 7.55277 4.74021 7.64654 4.64645C7.74031 4.55268 7.86749 4.5 8.0001 4.5Z" fill="#1A130F"/>
</svg>
