<svg width="20" height="20" viewBox="0 0 20 20" fill="none" xmlns="http://www.w3.org/2000/svg">
<path d="M8.5 3H11.5C11.6326 3 11.7598 3.05268 11.8536 3.14645C11.9473 3.24021 12 3.36739 12 3.5V4.5H8V3.5C8 3.36739 8.05268 3.24021 8.14645 3.14645C8.24021 3.05268 8.36739 3 8.5 3ZM13 4.5V3.5C13 3.10218 12.842 2.72064 12.5607 2.43934C12.2794 2.15804 11.8978 2 11.5 2H8.5C8.10218 2 7.72064 2.15804 7.43934 2.43934C7.15804 2.72064 7 3.10218 7 3.5V4.5H4.506C4.50267 4.49997 4.49933 4.49997 4.496 4.5H3.5C3.36739 4.5 3.24021 4.55268 3.14645 4.64645C3.05268 4.74021 3 4.86739 3 5C3 5.13261 3.05268 5.25979 3.14645 5.35355C3.24021 5.44732 3.36739 5.5 3.5 5.5H4.038L4.891 16.16C4.93122 16.6612 5.15875 17.1289 5.52827 17.4698C5.8978 17.8108 6.38219 18.0001 6.885 18H13.115C13.6178 18.0001 14.1022 17.8108 14.4717 17.4698C14.8412 17.1289 15.0688 16.6612 15.109 16.16L15.962 5.5H16.5C16.6326 5.5 16.7598 5.44732 16.8536 5.35355C16.9473 5.25979 17 5.13261 17 5C17 4.86739 16.9473 4.74021 16.8536 4.64645C16.7598 4.55268 16.6326 4.5 16.5 4.5H15.505C15.5017 4.49997 15.4983 4.49997 15.495 4.5H13ZM14.958 5.5L14.112 16.08C14.0919 16.3306 13.9781 16.5644 13.7934 16.7349C13.6086 16.9054 13.3664 17.0001 13.115 17H6.885C6.6336 17.0001 6.3914 16.9054 6.20664 16.7349C6.02188 16.5644 5.90811 16.3306 5.888 16.08L5.042 5.5H14.958ZM7.471 6.5C7.60333 6.49235 7.73329 6.53756 7.8323 6.6257C7.93131 6.71383 7.99127 6.83767 7.999 6.97L8.499 15.47C8.50425 15.6008 8.45802 15.7284 8.37022 15.8255C8.28242 15.9225 8.16006 15.9813 8.02941 15.9892C7.89876 15.997 7.77024 15.9533 7.67144 15.8675C7.57265 15.7816 7.51145 15.6605 7.501 15.53L7 7.03C6.99594 6.96431 7.00489 6.89847 7.02633 6.83625C7.04777 6.77403 7.08129 6.71665 7.12495 6.66741C7.16862 6.61817 7.22158 6.57804 7.28079 6.54931C7.34 6.52058 7.4043 6.50382 7.47 6.5H7.471ZM12.529 6.5C12.5947 6.50382 12.659 6.52058 12.7182 6.54931C12.7774 6.57804 12.8304 6.61817 12.874 6.66741C12.9177 6.71665 12.9512 6.77403 12.9727 6.83625C12.9941 6.89847 13.0031 6.96431 12.999 7.03L12.499 15.53C12.4963 15.5964 12.4804 15.6617 12.4522 15.7219C12.424 15.7821 12.3841 15.8361 12.3348 15.8807C12.2855 15.9254 12.2278 15.9597 12.165 15.9817C12.1023 16.0037 12.0358 16.013 11.9694 16.009C11.903 16.005 11.8381 15.9878 11.7785 15.9585C11.7188 15.9291 11.6656 15.8881 11.622 15.8379C11.5784 15.7877 11.5452 15.7293 11.5244 15.6661C11.5037 15.603 11.4957 15.5363 11.501 15.47L12.001 6.97C12.0087 6.83767 12.0687 6.71383 12.1677 6.6257C12.2667 6.53756 12.3967 6.49235 12.529 6.5ZM10 6.5C10.1326 6.5 10.2598 6.55268 10.3536 6.64645C10.4473 6.74021 10.5 6.86739 10.5 7V15.5C10.5 15.6326 10.4473 15.7598 10.3536 15.8536C10.2598 15.9473 10.1326 16 10 16C9.86739 16 9.74021 15.9473 9.64645 15.8536C9.55268 15.7598 9.5 15.6326 9.5 15.5V7C9.5 6.86739 9.55268 6.74021 9.64645 6.64645C9.74021 6.55268 9.86739 6.5 10 6.5Z" fill="black"/>
</svg>
