<svg width="20" height="20" viewBox="0 0 20 20" fill="none" xmlns="http://www.w3.org/2000/svg">
<path fill-rule="evenodd" clip-rule="evenodd" d="M4.55764 2.0574C4.6157 1.99919 4.68467 1.95301 4.7606 1.92151C4.83653 1.89 4.91793 1.87378 5.00014 1.87378C5.08235 1.87378 5.16375 1.89 5.23968 1.92151C5.31561 1.95301 5.38458 1.99919 5.44264 2.0574L12.9426 9.5574C13.0008 9.61545 13.047 9.68442 13.0785 9.76035C13.11 9.83629 13.1263 9.91769 13.1263 9.9999C13.1263 10.0821 13.11 10.1635 13.0785 10.2394C13.047 10.3154 13.0008 10.3843 12.9426 10.4424L5.44264 17.9424C5.32528 18.0598 5.16611 18.1257 5.00014 18.1257C4.83417 18.1257 4.675 18.0598 4.55764 17.9424C4.44028 17.825 4.37435 17.6659 4.37435 17.4999C4.37435 17.3339 4.44028 17.1748 4.55764 17.0574L11.6164 9.9999L4.55764 2.9424C4.49944 2.88434 4.45326 2.81537 4.42175 2.73944C4.39024 2.66351 4.37402 2.58211 4.37402 2.4999C4.37402 2.41769 4.39024 2.33629 4.42175 2.26035C4.45326 2.18442 4.49944 2.11545 4.55764 2.0574Z" fill="#E0E0E0"/>
<path fill-rule="evenodd" clip-rule="evenodd" d="M9.55764 2.0574C9.6157 1.99919 9.68467 1.95301 9.7606 1.92151C9.83653 1.89 9.91793 1.87378 10.0001 1.87378C10.0823 1.87378 10.1638 1.89 10.2397 1.92151C10.3156 1.95301 10.3846 1.99919 10.4426 2.0574L17.9426 9.5574C18.0008 9.61545 18.047 9.68442 18.0785 9.76035C18.11 9.83629 18.1263 9.91769 18.1263 9.9999C18.1263 10.0821 18.11 10.1635 18.0785 10.2394C18.047 10.3154 18.0008 10.3843 17.9426 10.4424L10.4426 17.9424C10.3253 18.0598 10.1661 18.1257 10.0001 18.1257C9.83417 18.1257 9.675 18.0598 9.55764 17.9424C9.44028 17.825 9.37435 17.6659 9.37435 17.4999C9.37435 17.3339 9.44028 17.1748 9.55764 17.0574L16.6164 9.9999L9.55764 2.9424C9.49944 2.88434 9.45326 2.81537 9.42175 2.73944C9.39024 2.66351 9.37402 2.58211 9.37402 2.4999C9.37402 2.41769 9.39024 2.33629 9.42175 2.26035C9.45326 2.18442 9.49944 2.11545 9.55764 2.0574Z" fill="#E0E0E0"/>
</svg>
