<svg width="20" height="20" viewBox="0 0 20 20" fill="none" xmlns="http://www.w3.org/2000/svg">
<path fill-rule="evenodd" clip-rule="evenodd" d="M1.25 4.375C1.25 4.20924 1.31585 4.05027 1.43306 3.93306C1.55027 3.81585 1.70924 3.75 1.875 3.75H18.125C18.2908 3.75 18.4497 3.81585 18.5669 3.93306C18.6842 4.05027 18.75 4.20924 18.75 4.375C18.75 4.54076 18.6842 4.69973 18.5669 4.81694C18.4497 4.93415 18.2908 5 18.125 5H1.875C1.70924 5 1.55027 4.93415 1.43306 4.81694C1.31585 4.69973 1.25 4.54076 1.25 4.375ZM10 7.5C10.1658 7.5 10.3247 7.56585 10.4419 7.68306C10.5592 7.80027 10.625 7.95924 10.625 8.125V15.3663L13.3075 12.6825C13.4249 12.5651 13.584 12.4992 13.75 12.4992C13.916 12.4992 14.0751 12.5651 14.1925 12.6825C14.3099 12.7999 14.3758 12.959 14.3758 13.125C14.3758 13.291 14.3099 13.4501 14.1925 13.5675L10.4425 17.3175C10.3844 17.3757 10.3155 17.4219 10.2395 17.4534C10.1636 17.4849 10.0822 17.5011 10 17.5011C9.91779 17.5011 9.83639 17.4849 9.76046 17.4534C9.68453 17.4219 9.61556 17.3757 9.5575 17.3175L5.8075 13.5675C5.69014 13.4501 5.62421 13.291 5.62421 13.125C5.62421 12.959 5.69014 12.7999 5.8075 12.6825C5.92486 12.5651 6.08403 12.4992 6.25 12.4992C6.41597 12.4992 6.57514 12.5651 6.6925 12.6825L9.375 15.3663V8.125C9.375 7.95924 9.44085 7.80027 9.55806 7.68306C9.67527 7.56585 9.83424 7.5 10 7.5Z" fill="black"/>
</svg>
