<svg width="20" height="20" viewBox="0 0 20 20" fill="none" xmlns="http://www.w3.org/2000/svg">
<path d="M14.1458 2.14652C14.1922 2.09996 14.2474 2.06302 14.3081 2.03781C14.3689 2.01261 14.434 1.99963 14.4997 1.99963C14.5655 1.99963 14.6306 2.01261 14.6914 2.03781C14.7521 2.06302 14.8073 2.09996 14.8537 2.14652L17.8536 5.14637C17.9002 5.19281 17.9371 5.24799 17.9623 5.30873C17.9875 5.36947 18.0005 5.43459 18.0005 5.50035C18.0005 5.56612 17.9875 5.63124 17.9623 5.69198C17.9371 5.75272 17.9002 5.80789 17.8536 5.85434L7.85404 15.8538C7.80606 15.9015 7.74891 15.9389 7.68605 15.9638L2.68626 17.9637C2.5954 18.0001 2.49587 18.009 2.4 17.9893C2.30412 17.9697 2.21613 17.9223 2.14693 17.8531C2.07773 17.7839 2.03035 17.6959 2.01069 17.6C1.99102 17.5042 1.99992 17.4046 2.03629 17.3138L4.03621 12.314C4.06113 12.2512 4.09855 12.194 4.1462 12.146L14.1458 2.14652ZM13.2068 4.5004L15.4997 6.79329L16.7926 5.50035L14.4997 3.20747L13.2068 4.5004ZM14.7927 7.50025L12.4998 5.20737L6.00012 11.707V12H6.5001C6.6327 12 6.75987 12.0527 6.85364 12.1465C6.9474 12.2402 7.00008 12.3674 7.00008 12.5V13H7.50005C7.63266 13 7.75983 13.0527 7.85359 13.1464C7.94736 13.2402 8.00003 13.3674 8.00003 13.5V13.9999H8.29302L14.7927 7.50025ZM5.03216 12.675L4.92617 12.781L3.39823 16.6018L7.21907 15.0739L7.32506 14.9679C7.22968 14.9322 7.14746 14.8683 7.08939 14.7847C7.03131 14.7011 7.00015 14.6017 7.00008 14.4999V13.9999H6.5001C6.36749 13.9999 6.24032 13.9473 6.14656 13.8535C6.0528 13.7597 6.00012 13.6326 6.00012 13.5V13H5.50014C5.39833 12.9999 5.29896 12.9687 5.21533 12.9107C5.1317 12.8526 5.0678 12.7704 5.03216 12.675Z" fill="#1A130F"/>
</svg>
