<svg width="20" height="20" viewBox="0 0 20 20" fill="none" xmlns="http://www.w3.org/2000/svg">
<path fill-rule="evenodd" clip-rule="evenodd" d="M10 12.5C10.1658 12.5 10.3247 12.4341 10.4419 12.3169C10.5592 12.1997 10.625 12.0407 10.625 11.875V4.63374L13.3075 7.31749C13.3656 7.3756 13.4346 7.42169 13.5105 7.45314C13.5864 7.48459 13.6678 7.50078 13.75 7.50078C13.8322 7.50078 13.9136 7.48459 13.9895 7.45314C14.0654 7.42169 14.1344 7.3756 14.1925 7.31749C14.2506 7.25938 14.2967 7.19039 14.3282 7.11447C14.3596 7.03854 14.3758 6.95717 14.3758 6.87499C14.3758 6.79281 14.3596 6.71143 14.3282 6.63551C14.2967 6.55958 14.2506 6.4906 14.1925 6.43249L10.4425 2.68249C10.3844 2.62428 10.3155 2.57811 10.2395 2.5466C10.1636 2.51509 10.0822 2.49887 10 2.49887C9.91779 2.49887 9.83639 2.51509 9.76046 2.5466C9.68453 2.57811 9.61556 2.62428 9.5575 2.68249L5.8075 6.43249C5.69014 6.54985 5.62421 6.70902 5.62421 6.87499C5.62421 7.04096 5.69014 7.20013 5.8075 7.31749C5.92486 7.43485 6.08403 7.50078 6.25 7.50078C6.41597 7.50078 6.57514 7.43485 6.6925 7.31749L9.375 4.63374V11.875C9.375 12.0407 9.44085 12.1997 9.55806 12.3169C9.67527 12.4341 9.83424 12.5 10 12.5ZM1.25 15.625C1.25 15.4592 1.31585 15.3003 1.43306 15.183C1.55027 15.0658 1.70924 15 1.875 15H18.125C18.2908 15 18.4497 15.0658 18.5669 15.183C18.6842 15.3003 18.75 15.4592 18.75 15.625C18.75 15.7907 18.6842 15.9497 18.5669 16.0669C18.4497 16.1841 18.2908 16.25 18.125 16.25H1.875C1.70924 16.25 1.55027 16.1841 1.43306 16.0669C1.31585 15.9497 1.25 15.7907 1.25 15.625Z" fill="black"/>
</svg>
