<svg width="20" height="20" viewBox="0 0 20 20" fill="none" xmlns="http://www.w3.org/2000/svg">
<g clip-path="url(#clip0_156_1358)">
<path d="M15.4423 5.44256C15.5004 5.38445 15.5465 5.31546 15.578 5.23954C15.6094 5.16361 15.6256 5.08224 15.6256 5.00006C15.6256 4.91788 15.6094 4.8365 15.578 4.76058C15.5465 4.68465 15.5004 4.61567 15.4423 4.55756C15.3842 4.49945 15.3152 4.45335 15.2393 4.4219C15.1634 4.39045 15.082 4.37427 14.9998 4.37427C14.9176 4.37427 14.8363 4.39045 14.7603 4.4219C14.6844 4.45335 14.6154 4.49945 14.5573 4.55756L6.24981 12.8663L2.31731 8.93256C2.2592 8.87445 2.19022 8.82835 2.11429 8.7969C2.03837 8.76545 1.95699 8.74927 1.87481 8.74927C1.70884 8.74927 1.54967 8.8152 1.43231 8.93256C1.31495 9.04992 1.24902 9.20909 1.24902 9.37506C1.24902 9.54103 1.31495 9.7002 1.43231 9.81756L5.80731 14.1926C5.86537 14.2508 5.93434 14.2969 6.01027 14.3284C6.0862 14.36 6.1676 14.3762 6.24981 14.3762C6.33202 14.3762 6.41342 14.36 6.48936 14.3284C6.56529 14.2969 6.63426 14.2508 6.69231 14.1926L15.4423 5.44256ZM10.1823 14.1926L9.06231 13.0713L9.94606 12.1876L10.6248 12.8663L18.9323 4.55756C19.0497 4.4402 19.2088 4.37427 19.3748 4.37427C19.5408 4.37427 19.7 4.4402 19.8173 4.55756C19.9347 4.67492 20.0006 4.83409 20.0006 5.00006C20.0006 5.16603 19.9347 5.3252 19.8173 5.44256L11.0673 14.1926C11.0093 14.2508 10.9403 14.2969 10.8644 14.3284C10.7884 14.36 10.707 14.3762 10.6248 14.3762C10.5426 14.3762 10.4612 14.36 10.3853 14.3284C10.3093 14.2969 10.2404 14.2508 10.1823 14.1926Z" fill="#1A130F"/>
<path d="M6.69231 8.93256L7.81231 10.0538L6.92856 10.9376L5.80731 9.81756C5.68995 9.7002 5.62402 9.54103 5.62402 9.37506C5.62402 9.20909 5.68995 9.04992 5.80731 8.93256C5.92467 8.8152 6.08384 8.74927 6.24981 8.74927C6.41578 8.74927 6.57495 8.8152 6.69231 8.93256Z" fill="#1A130F"/>
</g>
<defs>
<clipPath id="clip0_156_1358">
<rect width="20" height="20" fill="white"/>
</clipPath>
</defs>
</svg>
