<svg width="20" height="20" viewBox="0 0 20 20" fill="none" xmlns="http://www.w3.org/2000/svg">
<path d="M4 3C3.73478 3 3.48043 3.10536 3.29289 3.29289C3.10536 3.48043 3 3.73478 3 4V16C3 16.2652 3.10536 16.5196 3.29289 16.7071C3.48043 16.8946 3.73478 17 4 17H16C16.2652 17 16.5196 16.8946 16.7071 16.7071C16.8946 16.5196 17 16.2652 17 16V4C17 3.73478 16.8946 3.48043 16.7071 3.29289C16.5196 3.10536 16.2652 3 16 3H11.5C11.2348 3 10.9804 3.10536 10.7929 3.29289C10.6054 3.48043 10.5 3.73478 10.5 4V11.293L13.146 8.646C13.2399 8.55211 13.3672 8.49937 13.5 8.49937C13.6328 8.49937 13.7601 8.55211 13.854 8.646C13.9479 8.73989 14.0006 8.86722 14.0006 9C14.0006 9.13278 13.9479 9.26011 13.854 9.354L10.354 12.854C10.3076 12.9006 10.2524 12.9375 10.1916 12.9627C10.1309 12.9879 10.0658 13.0009 10 13.0009C9.93423 13.0009 9.86911 12.9879 9.80837 12.9627C9.74762 12.9375 9.69245 12.9006 9.646 12.854L6.146 9.354C6.09951 9.30751 6.06264 9.25232 6.03748 9.19158C6.01232 9.13084 5.99937 9.06574 5.99937 9C5.99937 8.93426 6.01232 8.86916 6.03748 8.80842C6.06264 8.74768 6.09951 8.69249 6.146 8.646C6.19249 8.59951 6.24768 8.56264 6.30842 8.53748C6.36916 8.51232 6.43426 8.49937 6.5 8.49937C6.56574 8.49937 6.63084 8.51232 6.69158 8.53748C6.75232 8.56264 6.80751 8.59951 6.854 8.646L9.5 11.293V4C9.5 3.46957 9.71071 2.96086 10.0858 2.58579C10.4609 2.21071 10.9696 2 11.5 2H16C16.5304 2 17.0391 2.21071 17.4142 2.58579C17.7893 2.96086 18 3.46957 18 4V16C18 16.5304 17.7893 17.0391 17.4142 17.4142C17.0391 17.7893 16.5304 18 16 18H4C3.46957 18 2.96086 17.7893 2.58579 17.4142C2.21071 17.0391 2 16.5304 2 16V4C2 3.46957 2.21071 2.96086 2.58579 2.58579C2.96086 2.21071 3.46957 2 4 2H6.5C6.63261 2 6.75979 2.05268 6.85355 2.14645C6.94732 2.24021 7 2.36739 7 2.5C7 2.63261 6.94732 2.75979 6.85355 2.85355C6.75979 2.94732 6.63261 3 6.5 3H4Z" fill="#1A130F"/>
</svg>
