<svg width="20" height="20" viewBox="0 0 20 20" fill="none" xmlns="http://www.w3.org/2000/svg">
<path d="M9.39474 2.00165C9.46974 1.99594 9.54512 2.00506 9.6166 2.02848C9.68807 2.0519 9.75423 2.08918 9.8113 2.13817C9.86837 2.18716 9.91523 2.24691 9.94921 2.31401C9.98319 2.38111 10.0036 2.45424 10.0093 2.52924C10.015 2.60423 10.0059 2.67962 9.9825 2.75109C9.95907 2.82256 9.9218 2.88872 9.87281 2.94579C9.82381 3.00285 9.76406 3.04971 9.69696 3.08369C9.62985 3.11766 9.55672 3.13809 9.48172 3.1438C8.17257 3.24508 6.91991 3.71956 5.8722 4.51102C4.8245 5.30247 4.02569 6.3777 3.57044 7.60928C3.1152 8.84085 3.02262 10.1771 3.30367 11.4597C3.58471 12.7423 4.22761 13.9174 5.15616 14.8458C6.0847 15.7741 7.25996 16.4168 8.54263 16.6977C9.82531 16.9785 11.1616 16.8857 12.3932 16.4303C13.6247 15.9749 14.6999 15.1759 15.4912 14.1281C16.2825 13.0804 16.7568 11.8277 16.8579 10.5185C16.8715 10.3689 16.9435 10.2305 17.0582 10.1335C17.173 10.0364 17.3214 9.98842 17.4713 9.99984C17.6211 10.0113 17.7605 10.0812 17.8592 10.1945C17.958 10.3079 18.0081 10.4555 17.9989 10.6055C17.881 12.1329 17.3276 13.5944 16.4044 14.8169C15.4811 16.0393 14.2267 16.9715 12.7898 17.5028C11.353 18.0341 9.79386 18.1423 8.29737 17.8145C6.80087 17.4868 5.42973 16.7368 4.34647 15.6536C3.26321 14.5704 2.51325 13.1993 2.1855 11.7029C1.85774 10.2064 1.96593 8.64738 2.49725 7.21056C3.02856 5.77373 3.96072 4.51936 5.18323 3.59614C6.40573 2.67292 7.86732 2.11956 9.39474 2.00165Z" fill="#1A130F"/>
<path d="M10.9763 9.83828C10.8677 9.94322 10.7221 10.0013 10.5711 9.99998C10.42 9.99867 10.2755 9.93808 10.1687 9.83127C10.0619 9.72445 10.0013 9.57996 10 9.42892C9.99871 9.27787 10.0568 9.13234 10.1617 9.02369L16.0332 3.15218H12.844C12.6912 3.15218 12.5447 3.09149 12.4366 2.98345C12.3286 2.87541 12.2679 2.72888 12.2679 2.57609C12.2679 2.4233 12.3286 2.27677 12.4366 2.16873C12.5447 2.0607 12.6912 2 12.844 2H17.4239C17.5767 2 17.7232 2.0607 17.8313 2.16873C17.9393 2.27677 18 2.4233 18 2.57609V7.15601C18 7.3088 17.9393 7.45533 17.8313 7.56336C17.7232 7.6714 17.5767 7.7321 17.4239 7.7321C17.2711 7.7321 17.1246 7.6714 17.0166 7.56336C16.9085 7.45533 16.8478 7.3088 16.8478 7.15601V3.96677L10.9763 9.83828Z" fill="#1A130F"/>
</svg>
