<svg width="16" height="16" viewBox="0 0 16 16" fill="none" xmlns="http://www.w3.org/2000/svg">
<g clip-path="url(#clip0_256_99)">
<path fill-rule="evenodd" clip-rule="evenodd" d="M1.7752 7.94233L2.08355 7.63398L2.70028 7.01725L5.16713 4.5504C6.18893 3.5286 7.8456 3.5286 8.8674 4.5504C9.8892 5.57221 9.8892 7.22887 8.8674 8.25068L6.13738 10.9807C5.94211 11.176 5.62553 11.176 5.43027 10.9807V10.9807C5.23501 10.7854 5.23501 10.4689 5.43027 10.2736L8.16029 7.54357C8.79157 6.91229 8.79157 5.88879 8.16029 5.25751C7.52901 4.62623 6.50551 4.62623 5.87423 5.25751L3.40738 7.72436L2.79066 8.34109L2.48231 8.64943C1.34013 9.79161 1.34013 11.6434 2.48231 12.7856C3.62449 13.9278 5.47633 13.9278 6.61851 12.7856L12.7856 6.61851C13.9278 5.47633 13.9278 3.62449 12.7856 2.48231C11.6434 1.34013 9.79161 1.34013 8.64943 2.48231V2.48231C8.47913 2.65261 8.20303 2.65261 8.03273 2.48231L7.94232 2.39191C7.77203 2.22161 7.77203 1.9455 7.94232 1.7752V1.7752C9.47503 0.242503 11.96 0.242502 13.4927 1.7752C15.0254 3.30791 15.0254 5.79291 13.4927 7.32561L7.32561 13.4927C5.79291 15.0254 3.30791 15.0254 1.7752 13.4927C0.242502 11.96 0.242501 9.47503 1.7752 7.94233Z" fill="#2787FF"/>
</g>
<defs>
<clipPath id="clip0_256_99">
<rect width="16" height="16" fill="white"/>
</clipPath>
</defs>
</svg>
