<svg width="24" height="24" viewBox="0 0 24 24" fill="none" xmlns="http://www.w3.org/2000/svg">
<path fill-rule="evenodd" clip-rule="evenodd" d="M1.04834 5.58413L0.931778 5.5081L0 4.90037V6.01282V18.8149C0 20.5739 1.42601 22 3.18509 22H20.4018C22.1609 22 23.5869 20.5739 23.5869 18.8149V9.88669C23.5869 8.12761 22.1609 6.7016 20.4018 6.7016H18.0917C18.0022 6.71098 17.9113 6.71579 17.8193 6.71579H3.18509C2.29667 6.71579 1.51303 6.26718 1.04834 5.58413ZM1.20517 18.8149V7.12527L1.61025 7.38948C2.1278 7.72704 2.73236 7.90677 3.35027 7.90677H20.4018C21.4953 7.90677 22.3818 8.79321 22.3818 9.88669V18.8149C22.3818 19.9083 21.4953 20.7948 20.4018 20.7948H3.18509C2.09161 20.7948 1.20517 19.9083 1.20517 18.8149Z" fill="#2787FF"/>
<rect x="0.602539" y="3" width="19.7992" height="4.30418" rx="2.15209" stroke="#2787FF" stroke-width="1.20517"/>
<path d="M8.1673 10.6628C7.61282 10.6819 7.16351 10.8349 6.80979 11.1026C6.35092 11.4276 6.13104 11.9056 6.13104 12.527C6.13104 13.1962 6.46563 13.7029 7.15395 14.047C7.48854 14.1617 7.82314 14.286 8.1673 14.4199V17.068C7.77534 17.0297 7.46942 16.8959 7.25911 16.676C7.01055 16.4179 6.85759 16.0068 6.80023 15.4332H6.02588C6.0928 16.198 6.31268 16.762 6.69507 17.1444C7.03923 17.4981 7.52678 17.6989 8.1673 17.7371V18.5784H8.64529V17.7371C9.25713 17.7085 9.74468 17.5651 10.1271 17.3069C10.5955 16.9724 10.8345 16.4657 10.8345 15.7965C10.8345 15.1273 10.4904 14.6206 9.82116 14.2669C9.61084 14.1809 9.21889 14.0375 8.64529 13.8271V11.3225C8.97033 11.3607 9.23801 11.4563 9.44832 11.6284C9.716 11.8482 9.88808 12.1828 9.955 12.6417H10.7198C10.6242 11.9725 10.3852 11.4754 10.0028 11.1504C9.65864 10.8636 9.19977 10.7011 8.64529 10.6628V9.87891H8.1673V10.6628ZM8.64529 14.5919C8.76957 14.6302 8.90341 14.678 9.03725 14.7258C9.70644 14.9839 10.0506 15.3472 10.0506 15.8156C10.0506 16.2171 9.9072 16.523 9.62996 16.7429C9.3814 16.9341 9.04681 17.0393 8.64529 17.068V14.5919ZM8.1673 13.6551L7.9283 13.569C7.24955 13.3014 6.91495 12.9572 6.91495 12.527C6.91495 12.1064 7.05835 11.7909 7.34515 11.5901C7.5459 11.4372 7.82314 11.3416 8.1673 11.3225V13.6551Z" fill="#2787FF" stroke="#2787FF" stroke-width="0.344335"/>
<circle cx="18.5079" cy="13.7605" r="1.29125" fill="#2787FF"/>
</svg>
