<svg width="14" height="14" viewBox="0 0 14 14" fill="none" xmlns="http://www.w3.org/2000/svg">
<g clip-path="url(#clip0_126_237)">
<circle cx="7.02239" cy="7.31633" r="5.59303" stroke="#7A7A7A" stroke-width="1.01691"/>
<path fill-rule="evenodd" clip-rule="evenodd" d="M13.521 2.93072C13.3019 3.10636 12.9831 3.06983 12.7934 2.86284C12.1454 2.15603 11.3661 1.57191 10.4946 1.14908C10.2419 1.02651 10.1154 0.73162 10.2208 0.471323C10.3261 0.211027 10.6233 0.0840657 10.877 0.204632C11.9105 0.695967 12.8307 1.38614 13.5883 2.22549C13.7765 2.43395 13.7401 2.75507 13.521 2.93072ZM3.46359 0.706467C3.5866 0.958903 3.48067 1.2618 3.23702 1.4014C2.43368 1.86169 1.72184 2.46411 1.13597 3.17443C0.957293 3.39106 0.640848 3.44424 0.412842 3.28032C0.184836 3.1164 0.131741 2.79762 0.308731 2.57961C0.994346 1.73507 1.83621 1.02238 2.7906 0.485486C3.03534 0.347806 3.34057 0.454031 3.46359 0.706467Z" fill="#7A7A7A"/>
<path fill-rule="evenodd" clip-rule="evenodd" d="M6.42871 4.09277V8.16043L8.33741 10.0692L9.05665 9.35014L7.44563 7.7393V4.09277H6.42871Z" fill="#7A7A7A"/>
</g>
<defs>
<clipPath id="clip0_126_237">
<rect width="14" height="14" fill="white"/>
</clipPath>
</defs>
</svg>
