<svg width="14" height="14" viewBox="0 0 14 14" fill="none" xmlns="http://www.w3.org/2000/svg">
<g clip-path="url(#clip0_87_1402)">
<path d="M8.75 11.6667H2.91667V4.08342C2.91667 3.76258 2.65417 3.50008 2.33333 3.50008C2.0125 3.50008 1.75 3.76258 1.75 4.08342V11.6667C1.75 12.3084 2.275 12.8334 2.91667 12.8334H8.75C9.07083 12.8334 9.33333 12.5709 9.33333 12.2501C9.33333 11.9292 9.07083 11.6667 8.75 11.6667ZM11.6667 9.33342V2.33341C11.6667 1.69175 11.1417 1.16675 10.5 1.16675H5.25C4.60833 1.16675 4.08333 1.69175 4.08333 2.33341V9.33342C4.08333 9.97508 4.60833 10.5001 5.25 10.5001H10.5C11.1417 10.5001 11.6667 9.97508 11.6667 9.33342ZM10.5 9.33342H5.25V2.33341H10.5V9.33342Z" fill="#212322"/>
</g>
<defs>
<clipPath id="clip0_87_1402">
<rect width="14" height="14" fill="white"/>
</clipPath>
</defs>
</svg>
