<svg width="12" height="12" viewBox="0 0 12 12" fill="none" xmlns="http://www.w3.org/2000/svg">
<g clip-path="url(#clip0_229_889)">
<rect width="12" height="12" fill="white"/>
<rect x="0.4" y="0.4" width="11.2" height="11.2" rx="0.933333" stroke="black" stroke-width="0.8"/>
<line x1="0.666626" y1="2.9335" x2="11.3333" y2="2.9335" stroke="black" stroke-width="0.8"/>
<path fill-rule="evenodd" clip-rule="evenodd" d="M3.33335 0.266602C3.55427 0.266602 3.73335 0.445688 3.73335 0.666602V1.33327C3.73335 1.55418 3.55427 1.73327 3.33335 1.73327C3.11244 1.73327 2.93335 1.55418 2.93335 1.33327V0.666602C2.93335 0.445688 3.11244 0.266602 3.33335 0.266602ZM6.00002 0.266602C6.22093 0.266602 6.40002 0.445688 6.40002 0.666602V1.33327C6.40002 1.55418 6.22093 1.73327 6.00002 1.73327C5.77911 1.73327 5.60002 1.55418 5.60002 1.33327V0.666602C5.60002 0.445688 5.77911 0.266602 6.00002 0.266602ZM9.06669 0.666602C9.06669 0.445688 8.8876 0.266602 8.66669 0.266602C8.44577 0.266602 8.26669 0.445688 8.26669 0.666602V1.33327C8.26669 1.55418 8.44577 1.73327 8.66669 1.73327C8.8876 1.73327 9.06669 1.55418 9.06669 1.33327V0.666602Z" fill="black"/>
<rect x="5.66671" y="4.99984" width="1.33333" height="1.33333" rx="0.333333" stroke="black" stroke-width="0.666667"/>
<rect x="8.99996" y="4.99984" width="1.33333" height="1.33333" rx="0.333333" stroke="black" stroke-width="0.666667"/>
<rect x="8.99996" y="8.33333" width="1.33333" height="1.33333" rx="0.333333" stroke="black" stroke-width="0.666667"/>
<rect x="5.66671" y="8.33333" width="1.33333" height="1.33333" rx="0.333333" stroke="black" stroke-width="0.666667"/>
<rect x="2.33333" y="8.33333" width="1.33333" height="1.33333" rx="0.333333" stroke="black" stroke-width="0.666667"/>
</g>
<defs>
<clipPath id="clip0_229_889">
<rect width="12" height="12" fill="white"/>
</clipPath>
</defs>
</svg>
