<svg width="24" height="24" viewBox="0 0 24 24" fill="none" xmlns="http://www.w3.org/2000/svg">
<g clip-path="url(#clip0_288_147)">
<path fill-rule="evenodd" clip-rule="evenodd" d="M2.90663 12.0933L4.28465 10.7153C4.28467 10.7153 4.28469 10.7153 4.2847 10.7153V10.7153C4.28471 10.7153 4.28473 10.7153 4.28475 10.7153L7.95932 7.04071C9.48141 5.51862 11.9492 5.51862 13.4713 7.04071C14.9934 8.5628 14.9934 11.0306 13.4713 12.5527L9.23149 16.7925C9.03622 16.9878 8.71964 16.9878 8.52438 16.7925V16.7925C8.32912 16.5973 8.32912 16.2807 8.52438 16.0854L12.7642 11.8456C13.8958 10.714 13.8958 8.87939 12.7642 7.74782C11.6326 6.61625 9.798 6.61625 8.66643 7.74782L4.07307 12.3412C4.07306 12.3412 4.07304 12.3412 4.07303 12.3412V12.3412C4.07301 12.3412 4.07299 12.3412 4.07298 12.3412L3.61374 12.8004C1.72113 14.693 1.72113 17.7616 3.61374 19.6542C5.50636 21.5468 8.5749 21.5468 10.4675 19.6542L19.6542 10.4675C21.5468 8.57491 21.5468 5.50638 19.6542 3.61376C17.7615 1.72115 14.693 1.72115 12.8004 3.61376L12.6947 3.7195C12.4994 3.91476 12.1828 3.91476 11.9875 3.7195V3.7195C11.7923 3.52423 11.7923 3.20765 11.9875 3.01239L12.0933 2.90665C14.3764 0.623515 18.0781 0.623515 20.3613 2.90665C22.6444 5.18979 22.6444 8.8915 20.3613 11.1746L11.1746 20.3613C8.89148 22.6444 5.18978 22.6444 2.90664 20.3613C0.623496 18.0781 0.623495 14.3764 2.90663 12.0933Z" fill="#2787FF"/>
<path d="M4.17859 10.6092L2.80057 11.9872L3.0127 12.1994L4.39072 10.8214L4.17859 10.6092ZM7.85326 6.93465L4.17868 10.6092L4.39081 10.8214L8.06539 7.14678L7.85326 6.93465ZM13.5774 6.93464C11.9967 5.35397 9.43393 5.35397 7.85326 6.93465L8.06539 7.14678C9.5289 5.68326 11.9017 5.68326 13.3652 7.14678L13.5774 6.93464ZM13.5774 12.6588C15.158 11.0781 15.1581 8.51532 13.5774 6.93464L13.3652 7.14678C14.8288 8.61029 14.8288 10.9831 13.3652 12.4466L13.5774 12.6588ZM9.33755 16.8986L13.5774 12.6588L13.3652 12.4466L9.12542 16.6865L9.33755 16.8986ZM12.6581 11.7395L8.41831 15.9794L8.63045 16.1915L12.8703 11.9517L12.6581 11.7395ZM12.6581 7.85388C13.7311 8.92687 13.7311 10.6665 12.6581 11.7395L12.8703 11.9517C14.0604 10.7615 14.0604 8.8319 12.8703 7.64175L12.6581 7.85388ZM8.77249 7.85388C9.84549 6.78089 11.5851 6.78089 12.6581 7.85388L12.8703 7.64175C11.6801 6.4516 9.75051 6.4516 8.56036 7.64175L8.77249 7.85388ZM4.17914 12.4472L8.77249 7.85388L8.56036 7.64175L3.96701 12.2351L4.17914 12.4472ZM3.71981 12.9065L4.17905 12.4472L3.96691 12.2351L3.50768 12.6943L3.71981 12.9065ZM3.71981 19.5481C1.88577 17.7141 1.88577 14.7405 3.71981 12.9065L3.50768 12.6943C1.55648 14.6455 1.55648 17.8091 3.50768 19.7602L3.71981 19.5481ZM10.3614 19.5481C8.52741 21.3822 5.55385 21.3822 3.71981 19.5481L3.50768 19.7602C5.45887 21.7114 8.62238 21.7114 10.5736 19.7602L10.3614 19.5481ZM19.5481 10.3615L10.3614 19.5481L10.5736 19.7602L19.7602 10.5736L19.5481 10.3615ZM19.5481 3.71983C21.3821 5.55386 21.3821 8.52743 19.5481 10.3615L19.7602 10.5736C21.7114 8.6224 21.7114 5.45889 19.7602 3.5077L19.5481 3.71983ZM12.9065 3.71983C14.7405 1.88579 17.7141 1.88579 19.5481 3.71983L19.7602 3.5077C17.809 1.5565 14.6455 1.5565 12.6943 3.5077L12.9065 3.71983ZM12.8007 3.82556L12.9065 3.71983L12.6943 3.5077L12.5886 3.61343L12.8007 3.82556ZM11.9872 2.80059L11.8815 2.90632L12.0936 3.11846L12.1994 3.01272L11.9872 2.80059ZM20.4673 2.80059C18.1256 0.45887 14.3289 0.458871 11.9872 2.80059L12.1994 3.01272C14.4239 0.788159 18.0306 0.788159 20.2552 3.01272L20.4673 2.80059ZM20.4673 11.2807C22.8091 8.93898 22.8091 5.14231 20.4673 2.80059L20.2552 3.01272C22.4798 5.23728 22.4798 8.84401 20.2552 11.0686L20.4673 11.2807ZM11.2807 20.4674L20.4673 11.2807L20.2552 11.0686L11.0686 20.2552L11.2807 20.4674ZM2.80057 20.4674C5.14229 22.8091 8.93897 22.8091 11.2807 20.4674L11.0686 20.2552C8.84399 22.4798 5.23726 22.4798 3.0127 20.2552L2.80057 20.4674ZM2.80057 11.9872C0.45885 14.329 0.458851 18.1256 2.80057 20.4674L3.0127 20.2552C0.78814 18.0307 0.788139 14.4239 3.0127 12.1994L2.80057 11.9872ZM12.0936 3.61343C11.9569 3.47675 11.9569 3.25514 12.0936 3.11846L11.8815 2.90632C11.6276 3.16017 11.6276 3.57172 11.8815 3.82556L12.0936 3.61343ZM12.5886 3.61343C12.4519 3.75011 12.2303 3.75011 12.0936 3.61343L11.8815 3.82556C12.1353 4.0794 12.5469 4.0794 12.8007 3.82556L12.5886 3.61343ZM4.17909 12.2351C4.12051 12.1765 4.02551 12.1765 3.96691 12.2351L4.17905 12.4472C4.12047 12.5058 4.02552 12.5058 3.96696 12.4472L4.17909 12.2351ZM4.39072 10.8214C4.33215 10.8799 4.2372 10.8799 4.17863 10.8214L4.39077 10.6092C4.33217 10.5506 4.23718 10.5506 4.17859 10.6092L4.39072 10.8214ZM3.96701 12.2351C4.02557 12.1765 4.12053 12.1765 4.17909 12.2351L3.96696 12.4472C4.02555 12.5058 4.12055 12.5058 4.17914 12.4472L3.96701 12.2351ZM9.12542 16.6865C8.98874 16.8231 8.76713 16.8231 8.63045 16.6865L8.41831 16.8986C8.67215 17.1524 9.08371 17.1524 9.33755 16.8986L9.12542 16.6865ZM8.63045 16.6865C8.49376 16.5498 8.49376 16.3282 8.63045 16.1915L8.41831 15.9794C8.16447 16.2332 8.16447 16.6447 8.41831 16.8986L8.63045 16.6865ZM4.17863 10.8214C4.23606 10.8788 4.33106 10.8811 4.39081 10.8214L4.17868 10.6092C4.23841 10.5495 4.33337 10.5518 4.39077 10.6092L4.17863 10.8214Z" fill="#2787FF"/>
</g>
<defs>
<clipPath id="clip0_288_147">
<rect width="24" height="24" fill="white"/>
</clipPath>
</defs>
</svg>
