<svg width="16" height="16" viewBox="0 0 16 16" fill="none" xmlns="http://www.w3.org/2000/svg">
<rect y="1" width="16" height="1" rx="0.5" fill="black"/>
<path d="M0 8C0 7.72386 0.223858 7.5 0.5 7.5H9.5C9.77614 7.5 10 7.72386 10 8C10 8.27614 9.77614 8.5 9.5 8.5H0.5C0.223858 8.5 0 8.27614 0 8Z" fill="black"/>
<path d="M12 8C12 7.72386 12.2239 7.5 12.5 7.5H15.5C15.7761 7.5 16 7.72386 16 8C16 8.27614 15.7761 8.5 15.5 8.5H12.5C12.2239 8.5 12 8.27614 12 8Z" fill="black"/>
<path d="M14 10C13.7239 10 13.5 9.77614 13.5 9.5L13.5 6.5C13.5 6.22386 13.7239 6 14 6C14.2761 6 14.5 6.22386 14.5 6.5L14.5 9.5C14.5 9.77614 14.2761 10 14 10Z" fill="black"/>
<rect y="14" width="16" height="1" rx="0.5" fill="black"/>
</svg>
