<svg width="14" height="14" viewBox="0 0 14 14" fill="none" xmlns="http://www.w3.org/2000/svg">
<path d="M4.8125 4.8125L9.625 3.9375" stroke="#7A7A7A" stroke-width="0.6" stroke-linecap="round" stroke-linejoin="round"/>
<rect x="2.05625" y="0.30625" width="9.8875" height="1.1375" rx="0.56875" stroke="#7A7A7A" stroke-width="0.6125"/>
<rect x="2.05625" y="12.5563" width="9.8875" height="1.1375" rx="0.56875" stroke="#7A7A7A" stroke-width="0.6125"/>
<path d="M3.9375 12.25C5.1915 12.25 5.70738 11.8649 6.26701 11.1177C6.63687 10.6239 7.37559 10.6192 7.81077 11.0566C8.5486 11.798 9.37115 12.25 10 12.25" stroke="#7A7A7A" stroke-width="0.6" stroke-linecap="round" stroke-linejoin="round"/>
<path d="M7 7.4375V7.875" stroke="#7A7A7A" stroke-width="0.6" stroke-linecap="round" stroke-linejoin="round"/>
<path d="M7 9.1875V9.625" stroke="#7A7A7A" stroke-width="0.6" stroke-linecap="round" stroke-linejoin="round"/>
<path fill-rule="evenodd" clip-rule="evenodd" d="M3.5 1.75C3.5 4.6495 5.067 7 7 7C8.933 7 10.5 4.6495 10.5 1.75H9.9C9.9 3.09781 9.53471 4.29089 8.97564 5.12949C8.41378 5.97228 7.70347 6.4 7 6.4C6.29653 6.4 5.58622 5.97228 5.02436 5.12949C4.46529 4.29089 4.1 3.09781 4.1 1.75H3.5Z" fill="#7A7A7A"/>
<path fill-rule="evenodd" clip-rule="evenodd" d="M9.9 12.25H10.5C10.5 9.35051 8.933 7 7 7C5.067 7 3.5 9.35051 3.5 12.25H4.1C4.1 10.9022 4.46529 9.70911 5.02436 8.87051C5.58622 8.02772 6.29653 7.6 7 7.6C7.70347 7.6 8.41378 8.02772 8.97564 8.87051C9.53471 9.70911 9.9 10.9022 9.9 12.25Z" fill="#7A7A7A"/>
</svg>
