<svg width="14" height="14" viewBox="0 0 14 14" fill="none" xmlns="http://www.w3.org/2000/svg">
<g clip-path="url(#clip0_89_458)">
<rect x="3.56738" y="4.85022" width="2.77154" height="0.692886" rx="0.346443" fill="#7A7A7A"/>
<rect x="3.56738" y="6.92886" width="2.77154" height="0.692886" rx="0.346443" fill="#7A7A7A"/>
<path fill-rule="evenodd" clip-rule="evenodd" d="M6.68538 2.4251C6.68538 2.15518 6.46656 1.93637 6.19664 1.93637H2.8745C1.83924 1.93637 1 2.77562 1 3.81088V12.1255C1 13.1608 1.83924 14 2.8745 14H11.1891C12.2244 14 13.0636 13.1608 13.0636 12.1255V8.80336C13.0636 8.53344 12.8448 8.31463 12.5749 8.31463C12.305 8.31463 12.0862 8.53344 12.0862 8.80336V12.1255C12.0862 12.6209 11.6846 13.0225 11.1891 13.0225H2.8745C2.37908 13.0225 1.97746 12.6209 1.97746 12.1255V3.81088C1.97746 3.31545 2.37908 2.91383 2.8745 2.91383H6.19664C6.46656 2.91383 6.68538 2.69502 6.68538 2.4251Z" fill="#7A7A7A"/>
<path d="M10.5002 8.25062V3H9.48058H8.46092V8.25062M10.5002 8.25062H8.46092M10.5002 8.25062L9.38963 10L8.46092 8.25062" stroke="#7A7A7A" stroke-width="0.7"/>
<path d="M8.46092 2.01966C8.46092 1.45652 8.91743 1 9.48058 1V1C10.0437 1 10.5002 1.45652 10.5002 2.01966V3H8.46092V2.01966Z" stroke="#7A7A7A" stroke-width="0.7"/>
</g>
<defs>
<clipPath id="clip0_89_458">
<rect width="14" height="14" fill="white"/>
</clipPath>
</defs>
</svg>
