<svg width="24" height="24" viewBox="0 0 24 24" fill="none" xmlns="http://www.w3.org/2000/svg">
<rect x="2.75" y="7.07422" width="18.5" height="13.6351" rx="1.41216" stroke="#212322" stroke-width="1.5"/>
<path fill-rule="evenodd" clip-rule="evenodd" d="M4.16216 3.5H13.8919C14.2576 3.5 14.5541 3.79646 14.5541 4.16216V5H16.0541V4.16216C16.0541 2.96803 15.086 2 13.8919 2H4.16216C2.96803 2 2 2.96803 2 4.16216V14.973C2 15.9361 2.62977 16.7522 3.5 17.0319V14.973V5V4.16216C3.5 3.79646 3.79646 3.5 4.16216 3.5Z" fill="#212322"/>
<path fill-rule="evenodd" clip-rule="evenodd" d="M16.5 14V15.5H17.5V14H19V13H17.5V11.5H16.5V13H15V14H16.5Z" fill="#212322"/>
</svg>
