<svg width="14" height="14" viewBox="0 0 14 14" fill="none" xmlns="http://www.w3.org/2000/svg">
<path d="M7 0C3.14012 0 0 3.14012 0 7C0 10.8599 3.14012 14 7 14C10.8599 14 14 10.8599 14 7C14 3.14012 10.8599 0 7 0ZM7 13.1765C3.59388 13.1765 0.823529 10.4061 0.823529 7C0.823529 3.59388 3.59388 0.823529 7 0.823529C10.4061 0.823529 13.1765 3.59388 13.1765 7C13.1765 10.4061 10.4061 13.1765 7 13.1765ZM7.41176 10.1862H8.218V11.0098H5.782V10.1862H6.58824V6.54624H5.80918V5.72271H7.41176V10.1862ZM5.91706 4.10612C5.91706 3.65729 6.28023 3.29412 6.72906 3.29412C7.17788 3.29412 7.54024 3.65729 7.54024 4.10612C7.54024 4.55329 7.17788 4.91647 6.72906 4.91647C6.28023 4.91647 5.91706 4.55329 5.91706 4.10612Z" fill="#7A7A7A"/>
</svg>
