<svg width="215" height="148" viewBox="0 0 215 148" fill="none" xmlns="http://www.w3.org/2000/svg">
<g clip-path="url(#clip0_196_258)">
<rect width="215" height="148" fill="white"/>
<ellipse cx="106.938" cy="144.047" rx="106.938" ry="50.5045" fill="url(#paint0_linear_196_258)"/>
<path fill-rule="evenodd" clip-rule="evenodd" d="M85.638 26.3502C85.638 21.4992 89.5705 17.5668 94.4214 17.5668H110.231H145.804H161.614C166.465 17.5668 170.398 21.4992 170.398 26.3502V38.2077H154.588V94.4214C154.588 99.2723 150.655 103.205 145.804 103.205H94.4214C89.5705 103.205 85.638 99.2723 85.638 94.4214V26.3502ZM67.5388 44.584C69.1068 41.3451 69.9568 37.6283 70.4878 32.476L70.9247 32.521C70.3912 37.697 69.5338 41.471 67.9341 44.7754C66.334 48.0806 63.9992 50.8995 60.5368 54.1773L60.2348 53.8583C63.6782 50.5986 65.9713 47.822 67.5388 44.584ZM69.1179 56.481C70.9725 54.1683 72.2993 51.4917 73.4322 47.7497L73.8525 47.8769C72.7081 51.6569 71.3591 54.3882 69.4605 56.7557C67.5641 59.1205 65.1282 61.111 61.8292 63.4203L61.5774 63.0605C64.866 60.7585 67.2609 58.7965 69.1179 56.481ZM56.595 61.482C56.8056 61.6023 56.8787 61.8706 56.7584 62.0812L55.4375 64.3928C55.3967 64.4642 55.3388 64.5199 55.272 64.5575C53.936 66.9055 52.748 68.4716 50.724 70.9259C53.4083 68.8192 54.9031 67.3897 56.6341 64.7525C57.1969 65.4908 57.5311 66.4126 57.5311 67.4126C57.5311 72.5503 48.5907 73.9323 44.7953 73.7805C46.4 72.6696 47.1752 70.5942 47.9348 68.5603C48.9841 65.751 50.0038 63.0209 53.1394 63.0209C53.7965 63.0209 54.4198 63.1652 54.9796 63.4238L55.9958 61.6454C56.1161 61.4348 56.3844 61.3617 56.595 61.482Z" fill="url(#paint1_linear_196_258)"/>
<rect x="95.7389" y="36.0118" width="48.7478" height="5.7092" rx="2.8546" fill="white"/>
<rect x="95.7389" y="50.5045" width="48.7478" height="5.7092" rx="2.8546" fill="white"/>
<rect x="95.7389" y="64.997" width="30.3027" height="5.7092" rx="2.8546" fill="white"/>
<path d="M154.588 27.2285C154.588 23.5903 157.537 20.6409 161.175 20.6409C164.813 20.6409 167.763 23.5903 167.763 27.2285V38.2077H154.588V27.2285Z" fill="#D4D8E0"/>
<path fill-rule="evenodd" clip-rule="evenodd" d="M142.73 83.8813H73.7804V97.4955C73.7804 100.649 76.3365 103.205 79.4896 103.205H142.73V103.193C138.326 102.965 134.825 99.3216 134.825 94.8605V83.8813L142.73 83.8813Z" fill="url(#paint2_linear_196_258)"/>
</g>
<defs>
<linearGradient id="paint0_linear_196_258" x1="106.938" y1="93.543" x2="106.718" y2="156.783" gradientUnits="userSpaceOnUse">
<stop stop-color="#F5F6F8"/>
<stop offset="1" stop-color="#F5F6F8" stop-opacity="0"/>
</linearGradient>
<linearGradient id="paint1_linear_196_258" x1="107.596" y1="17.5668" x2="107.596" y2="103.205" gradientUnits="userSpaceOnUse">
<stop stop-color="#EDEFF3"/>
<stop offset="1" stop-color="#E6E8EE"/>
</linearGradient>
<linearGradient id="paint2_linear_196_258" x1="108.255" y1="83.8813" x2="108.255" y2="103.205" gradientUnits="userSpaceOnUse">
<stop stop-color="#F9F9FB"/>
<stop offset="1" stop-color="#EDEEF1"/>
</linearGradient>
<clipPath id="clip0_196_258">
<rect width="215" height="148" fill="white"/>
</clipPath>
</defs>
</svg>
