<svg width="12" height="12" viewBox="0 0 12 12" fill="none" xmlns="http://www.w3.org/2000/svg">
<rect x="1.73337" y="5.0665" width="8.53333" height="6.53333" rx="1.26667" stroke="black" stroke-width="0.8"/>
<mask id="path-2-inside-1_231_1003" fill="white">
<path fill-rule="evenodd" clip-rule="evenodd" d="M5.99996 0C4.15901 0 2.66663 1.49239 2.66663 3.33334V5.44715C2.87516 5.37344 3.09956 5.33333 3.33333 5.33333H8.66667C8.90041 5.33333 9.12478 5.37343 9.33329 5.44712V3.33333C9.33329 1.49238 7.84091 0 5.99996 0Z"/>
</mask>
<path d="M2.66663 5.44715H1.86663V6.57844L2.93324 6.20142L2.66663 5.44715ZM9.33329 5.44712L9.06671 6.2014L10.1333 6.57835V5.44712H9.33329ZM3.46663 3.33334C3.46663 1.93421 4.60084 0.8 5.99996 0.8V-0.8C3.71718 -0.8 1.86663 1.05056 1.86663 3.33334H3.46663ZM3.46663 5.44715V3.33334H1.86663V5.44715H3.46663ZM2.93324 6.20142C3.05733 6.15755 3.19164 6.13333 3.33333 6.13333V4.53333C3.00748 4.53333 2.69298 4.58933 2.40001 4.69289L2.93324 6.20142ZM3.33333 6.13333H8.66667V4.53333H3.33333V6.13333ZM8.66667 6.13333C8.80834 6.13333 8.94263 6.15755 9.06671 6.2014L9.59987 4.69284C9.30694 4.58931 8.99248 4.53333 8.66667 4.53333V6.13333ZM8.53329 3.33333V5.44712H10.1333V3.33333H8.53329ZM5.99996 0.8C7.39908 0.8 8.53329 1.93421 8.53329 3.33333H10.1333C10.1333 1.05056 8.28274 -0.8 5.99996 -0.8V0.8Z" fill="black" mask="url(#path-2-inside-1_231_1003)"/>
</svg>
