<svg width="12" height="12" viewBox="0 0 12 12" fill="none" xmlns="http://www.w3.org/2000/svg">
<path fill-rule="evenodd" clip-rule="evenodd" d="M1 5C0.447715 5 0 5.44772 0 6V11C0 11.5523 0.447715 12 1 12H10C10.5523 12 11 11.5523 11 11V6C11 5.44772 10.5523 5 10 5H1ZM1.5 6C1.22386 6 1 6.22386 1 6.5V10.5C1 10.7761 1.22386 11 1.5 11H9.5C9.77614 11 10 10.7761 10 10.5V6.5C10 6.22386 9.77614 6 9.5 6H1.5Z" fill="#7EB6FF"/>
<path d="M3.5 2.5C3.5 1.39543 4.39543 0.5 5.5 0.5C6.60457 0.5 7.5 1.39543 7.5 2.5V5.5H3.5V2.5Z" stroke="#7EB6FF"/>
<circle cx="5.5135" cy="8.75679" r="0.972973" stroke="#7EB6FF"/>
</svg>
