<svg width="12" height="11" viewBox="0 0 12 11" fill="none" xmlns="http://www.w3.org/2000/svg">
<rect x="0.4" y="1.34678" width="11.1467" height="8.58667" rx="1.26667" stroke="black" stroke-width="0.8"/>
<path d="M3.41333 0.4C3.41333 0.179086 3.59242 0 3.81333 0C4.03424 0 4.21333 0.179086 4.21333 0.4V2.25341C4.21333 2.47432 4.03424 2.65341 3.81333 2.65341C3.59242 2.65341 3.41333 2.47432 3.41333 2.25341V0.4Z" fill="black"/>
<path d="M8.10669 0.4C8.10669 0.179086 8.28578 0 8.50669 0C8.7276 0 8.90669 0.179086 8.90669 0.4V2.2535C8.90669 2.47441 8.7276 2.6535 8.50669 2.6535C8.28578 2.6535 8.10669 2.47441 8.10669 2.2535V0.4Z" fill="black"/>
<rect x="2.71997" y="4.3335" width="0.906719" height="0.906719" rx="0.22668" fill="black"/>
<rect x="2.71997" y="7" width="0.906719" height="0.906719" rx="0.22668" fill="black"/>
<rect x="5.52002" y="4.3335" width="0.906719" height="0.906719" rx="0.22668" fill="black"/>
<rect x="5.52002" y="7" width="0.906719" height="0.906719" rx="0.22668" fill="black"/>
<rect width="0.906719" height="0.906719" rx="0.22668" transform="matrix(-1 0 0 1 9.22668 4.3335)" fill="black"/>
<rect width="0.906719" height="0.906719" rx="0.22668" transform="matrix(-1 0 0 1 9.22668 7)" fill="black"/>
</svg>
