<svg width="18" height="18" viewBox="0 0 18 18" fill="none" xmlns="http://www.w3.org/2000/svg">
<g clip-path="url(#clip0_54_395)">
<path d="M1.125 1.6875C1.125 1.23995 1.30279 0.810725 1.61926 0.494257C1.93572 0.17779 2.36495 0 2.8125 0L16.3125 0C16.7601 0 17.1893 0.17779 17.5057 0.494257C17.8222 0.810725 18 1.23995 18 1.6875V16.3125C18 16.7601 17.8222 17.1893 17.5057 17.5057C17.1893 17.8222 16.7601 18 16.3125 18H2.8125C2.36495 18 1.93572 17.8222 1.61926 17.5057C1.30279 17.1893 1.125 16.7601 1.125 16.3125V14.625H0.5625C0.413316 14.625 0.270242 14.5657 0.164752 14.4602C0.0592632 14.3548 0 14.2117 0 14.0625C0 13.9133 0.0592632 13.7702 0.164752 13.6648C0.270242 13.5593 0.413316 13.5 0.5625 13.5H1.125V9.5625H0.5625C0.413316 9.5625 0.270242 9.50324 0.164752 9.39775C0.0592632 9.29226 0 9.14918 0 9C0 8.85082 0.0592632 8.70774 0.164752 8.60225C0.270242 8.49676 0.413316 8.4375 0.5625 8.4375H1.125V4.5H0.5625C0.413316 4.5 0.270242 4.44074 0.164752 4.33525C0.0592632 4.22976 0 4.08668 0 3.9375C0 3.78832 0.0592632 3.64524 0.164752 3.53975C0.270242 3.43426 0.413316 3.375 0.5625 3.375H1.125V1.6875ZM2.8125 1.125C2.66332 1.125 2.52024 1.18426 2.41475 1.28975C2.30926 1.39524 2.25 1.53832 2.25 1.6875V16.3125C2.25 16.4617 2.30926 16.6048 2.41475 16.7102C2.52024 16.8157 2.66332 16.875 2.8125 16.875H16.3125C16.4617 16.875 16.6048 16.8157 16.7102 16.7102C16.8157 16.6048 16.875 16.4617 16.875 16.3125V1.6875C16.875 1.53832 16.8157 1.39524 16.7102 1.28975C16.6048 1.18426 16.4617 1.125 16.3125 1.125H2.8125Z" fill="#2787FF"/>
<path d="M15.1888 6.7497C15.338 6.7497 15.4811 6.80896 15.5866 6.91445C15.6921 7.01994 15.7513 7.16302 15.7513 7.3122V10.6872C15.7513 10.8364 15.6921 10.9795 15.5866 11.0849C15.4811 11.1904 15.338 11.2497 15.1888 11.2497C15.0396 11.2497 14.8966 11.1904 14.7911 11.0849C14.6856 10.9795 14.6263 10.8364 14.6263 10.6872V7.3122C14.6263 7.16302 14.6856 7.01994 14.7911 6.91445C14.8966 6.80896 15.0396 6.7497 15.1888 6.7497ZM5.43283 5.0217C5.48509 4.96932 5.54716 4.92776 5.6155 4.8994C5.68383 4.87104 5.7571 4.85645 5.83108 4.85645C5.90507 4.85645 5.97833 4.87104 6.04667 4.8994C6.11501 4.92776 6.17708 4.96932 6.22933 5.0217L7.45558 6.24795C8.02694 5.84247 8.71022 5.62465 9.41083 5.62465C10.1114 5.62465 10.7947 5.84247 11.3661 6.24795L12.5923 5.0217C12.698 4.91623 12.8412 4.85703 12.9904 4.85714C13.1397 4.85724 13.2828 4.91664 13.3883 5.02226C13.4937 5.12789 13.5529 5.27108 13.5528 5.42035C13.5527 5.56962 13.4933 5.71273 13.3877 5.8182L12.1615 7.04445C12.994 8.21108 12.994 9.78945 12.1615 10.955L13.3877 12.1812C13.4933 12.2867 13.5527 12.4298 13.5528 12.5791C13.5529 12.7283 13.4937 12.8715 13.3883 12.9771C13.2828 13.0828 13.1397 13.1422 12.9904 13.1423C12.8412 13.1424 12.698 13.0832 12.5923 12.9777L11.3661 11.7515C10.7948 12.1571 10.1115 12.375 9.41083 12.375C8.71018 12.375 8.02687 12.1571 7.45558 11.7515L6.22933 12.9777C6.17703 13.03 6.11495 13.0715 6.04662 13.0998C5.97828 13.1281 5.90505 13.1427 5.83108 13.1427C5.75712 13.1427 5.68388 13.1281 5.61555 13.0998C5.54722 13.0715 5.48513 13.03 5.43283 12.9777C5.38053 12.9254 5.33905 12.8633 5.31075 12.795C5.28244 12.7267 5.26787 12.6534 5.26787 12.5795C5.26787 12.5055 5.28244 12.4323 5.31075 12.3639C5.33905 12.2956 5.38053 12.2335 5.43283 12.1812L6.65908 10.955C6.2536 10.3836 6.03578 9.70031 6.03578 8.9997C6.03578 8.29909 6.2536 7.6158 6.65908 7.04445L5.43283 5.8182C5.38045 5.76595 5.33889 5.70388 5.31053 5.63554C5.28217 5.5672 5.26758 5.49394 5.26758 5.41995C5.26758 5.34596 5.28217 5.2727 5.31053 5.20436C5.33889 5.13602 5.38045 5.07395 5.43283 5.0217ZM7.82008 7.40895C7.60519 7.61651 7.43378 7.86478 7.31586 8.13929C7.19794 8.4138 7.13587 8.70904 7.13327 9.0078C7.13067 9.30655 7.1876 9.60283 7.30073 9.87935C7.41387 10.1559 7.58094 10.4071 7.7922 10.6183C8.00345 10.8296 8.25467 10.9967 8.53119 11.1098C8.8077 11.2229 9.10398 11.2799 9.40274 11.2773C9.70149 11.2747 9.99674 11.2126 10.2712 11.0947C10.5458 10.9768 10.794 10.8053 11.0016 10.5905C11.4114 10.1661 11.6382 9.59774 11.6331 9.0078C11.628 8.41786 11.3913 7.85353 10.9742 7.43636C10.557 7.01919 9.99268 6.78256 9.40274 6.77743C8.81279 6.77231 8.24444 6.9991 7.82008 7.40895Z" fill="#2787FF"/>
</g>
<defs>
<clipPath id="clip0_54_395">
<rect width="18" height="18" fill="white"/>
</clipPath>
</defs>
</svg>
