<svg width="12" height="12" viewBox="0 0 12 12" fill="none" xmlns="http://www.w3.org/2000/svg">
<path fill-rule="evenodd" clip-rule="evenodd" d="M1 4C0.447715 4 0 4.44772 0 5V11C0 11.5523 0.447715 12 1 12H11C11.5523 12 12 11.5523 12 11V5C12 4.44772 11.5523 4 11 4H1ZM1.5 5C1.22386 5 1 5.22386 1 5.5V10.5C1 10.7761 1.22386 11 1.5 11H10.5C10.7761 11 11 10.7761 11 10.5V5.5C11 5.22386 10.7761 5 10.5 5H1.5Z" fill="#212322"/>
<path d="M3.5 2.91892C3.5 1.58299 4.58299 0.5 5.91892 0.5H6.08108C7.41701 0.5 8.5 1.58299 8.5 2.91892V4.5H3.5V2.91892Z" stroke="#212322"/>
<ellipse cx="6.06143" cy="7.97297" rx="1.06143" ry="0.972973" stroke="#212322"/>
</svg>
