<svg width="18" height="18" viewBox="0 0 18 18" fill="none" xmlns="http://www.w3.org/2000/svg">
<path d="M16.875 15.75C16.875 15.75 18 15.75 18 14.625C18 13.5 16.875 10.125 12.375 10.125C7.875 10.125 6.75 13.5 6.75 14.625C6.75 15.75 7.875 15.75 7.875 15.75H16.875ZM7.89975 14.625C7.89144 14.6239 7.88318 14.6224 7.875 14.6205C7.87612 14.3235 8.06287 13.4618 8.73 12.6855C9.351 11.9576 10.4423 11.25 12.375 11.25C14.3066 11.25 15.3979 11.9587 16.02 12.6855C16.6871 13.4618 16.8727 14.3246 16.875 14.6205L16.866 14.6228C16.8608 14.6236 16.8555 14.6244 16.8503 14.625H7.89975ZM12.375 7.875C12.9717 7.875 13.544 7.63795 13.966 7.21599C14.3879 6.79403 14.625 6.22174 14.625 5.625C14.625 5.02826 14.3879 4.45597 13.966 4.03401C13.544 3.61205 12.9717 3.375 12.375 3.375C11.7783 3.375 11.206 3.61205 10.784 4.03401C10.3621 4.45597 10.125 5.02826 10.125 5.625C10.125 6.22174 10.3621 6.79403 10.784 7.21599C11.206 7.63795 11.7783 7.875 12.375 7.875ZM15.75 5.625C15.75 6.06821 15.6627 6.50708 15.4931 6.91656C15.3235 7.32603 15.0749 7.69809 14.7615 8.01149C14.4481 8.32488 14.076 8.57348 13.6666 8.74309C13.2571 8.9127 12.8182 9 12.375 9C11.9318 9 11.4929 8.9127 11.0834 8.74309C10.674 8.57348 10.3019 8.32488 9.98851 8.01149C9.67512 7.69809 9.42652 7.32603 9.25691 6.91656C9.0873 6.50708 9 6.06821 9 5.625C9 4.72989 9.35558 3.87145 9.98851 3.23851C10.6214 2.60558 11.4799 2.25 12.375 2.25C13.2701 2.25 14.1286 2.60558 14.7615 3.23851C15.3944 3.87145 15.75 4.72989 15.75 5.625ZM7.803 10.44C7.35298 10.2983 6.88909 10.2051 6.41925 10.1621C6.15525 10.137 5.89019 10.1246 5.625 10.125C1.125 10.125 0 13.5 0 14.625C0 15.3754 0.374625 15.75 1.125 15.75H5.868C5.70122 15.3988 5.61805 15.0137 5.625 14.625C5.625 13.4888 6.04913 12.3277 6.85125 11.358C7.12463 11.0272 7.443 10.7179 7.803 10.44ZM5.535 11.25C4.86917 12.2504 4.5095 13.4233 4.5 14.625H1.125C1.125 14.3325 1.3095 13.4663 1.98 12.6855C2.59313 11.97 3.6585 11.2725 5.535 11.2511V11.25ZM1.6875 6.1875C1.6875 5.29239 2.04308 4.43395 2.67601 3.80101C3.30895 3.16808 4.16739 2.8125 5.0625 2.8125C5.95761 2.8125 6.81605 3.16808 7.44899 3.80101C8.08192 4.43395 8.4375 5.29239 8.4375 6.1875C8.4375 7.08261 8.08192 7.94105 7.44899 8.57399C6.81605 9.20692 5.95761 9.5625 5.0625 9.5625C4.16739 9.5625 3.30895 9.20692 2.67601 8.57399C2.04308 7.94105 1.6875 7.08261 1.6875 6.1875ZM5.0625 3.9375C4.46576 3.9375 3.89347 4.17455 3.47151 4.59651C3.04955 5.01847 2.8125 5.59076 2.8125 6.1875C2.8125 6.78424 3.04955 7.35653 3.47151 7.77849C3.89347 8.20045 4.46576 8.4375 5.0625 8.4375C5.65924 8.4375 6.23153 8.20045 6.65349 7.77849C7.07545 7.35653 7.3125 6.78424 7.3125 6.1875C7.3125 5.59076 7.07545 5.01847 6.65349 4.59651C6.23153 4.17455 5.65924 3.9375 5.0625 3.9375Z" fill="#2787FF"/>
</svg>
