<svg width="12" height="12" viewBox="0 0 12 12" fill="none" xmlns="http://www.w3.org/2000/svg">
<mask id="path-1-outside-1_231_970" maskUnits="userSpaceOnUse" x="-2.08082" y="-0.829123" width="14.8778" height="14.8202" fill="black">
<rect fill="white" x="-2.08082" y="-0.829123" width="14.8778" height="14.8202"/>
<path fill-rule="evenodd" clip-rule="evenodd" d="M1.86571 1.61895L2.29472 1.1456C2.48828 0.932032 2.82554 0.937486 3.0121 1.1572L3.68666 1.95168C3.84681 2.1403 3.83623 2.42004 3.66228 2.59603L3.21292 3.05065C2.74606 3.52297 2.6604 4.2584 3.03836 4.80446C4.17873 6.45201 5.23201 7.44934 6.87939 8.58364C7.43624 8.96705 8.18653 8.88042 8.6618 8.39959L9.2101 7.84487C9.38405 7.66888 9.66365 7.65505 9.85412 7.81299L10.7276 8.5373C10.9488 8.72077 10.9589 9.05675 10.749 9.25312L10.3006 9.6727C9.3155 10.5944 7.87835 10.8458 6.63886 10.3133L6.58184 10.2888C4.31336 9.3142 2.4621 7.56954 1.35484 5.36276C0.735815 4.12904 0.938774 2.64171 1.86571 1.61895Z"/>
</mask>
<path d="M1.86571 1.61895L2.45848 2.15619L1.86571 1.61895ZM3.03836 4.80446L3.69616 4.34916L3.03836 4.80446ZM6.87939 8.58364L7.33308 7.92473L6.87939 8.58364ZM10.3006 9.6727L10.8472 10.2569L10.3006 9.6727ZM6.63886 10.3133L6.95465 9.57825L6.95465 9.57825L6.63886 10.3133ZM6.58184 10.2888L6.26605 11.0238L6.26606 11.0238L6.58184 10.2888ZM1.35484 5.36276L2.06988 5.00399L1.35484 5.36276ZM10.7276 8.5373L10.2169 9.15312L10.7276 8.5373ZM10.749 9.25312L11.2956 9.83729L10.749 9.25312ZM9.85412 7.81299L9.34347 8.42881L9.85412 7.81299ZM3.68666 1.95168L3.07682 2.46947L3.07683 2.46947L3.68666 1.95168ZM2.29472 1.1456L1.70194 0.608367L2.29472 1.1456ZM3.0121 1.1572L2.40226 1.67499L3.0121 1.1572ZM1.70194 0.608367L1.27294 1.08172L2.45848 2.15619L2.88749 1.68284L1.70194 0.608367ZM4.29649 1.43389L3.62193 0.639416L2.40226 1.67499L3.07683 2.46947L4.29649 1.43389ZM3.78189 3.61303L4.23125 3.15841L3.09331 2.03364L2.64395 2.48826L3.78189 3.61303ZM3.69616 4.34916C3.55057 4.13881 3.56875 3.82867 3.78189 3.61303L2.64395 2.48826C1.92338 3.21727 1.77023 4.37798 2.38057 5.25976L3.69616 4.34916ZM7.33308 7.92473C5.75543 6.83844 4.77482 5.90756 3.69616 4.34916L2.38057 5.25976C3.58263 6.99646 4.70859 8.06024 6.4257 9.24255L7.33308 7.92473ZM8.09283 7.8372C7.87787 8.05468 7.55661 8.07864 7.33308 7.92473L6.4257 9.24255C7.31587 9.85547 8.49519 9.70616 9.23077 8.96197L8.09283 7.8372ZM8.64113 7.28248L8.09283 7.8372L9.23077 8.96197L9.77907 8.40725L8.64113 7.28248ZM11.2382 7.92148L10.3648 7.19717L9.34347 8.42881L10.2169 9.15312L11.2382 7.92148ZM10.8472 10.2569L11.2956 9.83729L10.2024 8.66895L9.75401 9.08853L10.8472 10.2569ZM6.32308 11.0483C7.85448 11.7063 9.63008 11.3956 10.8472 10.2569L9.75401 9.08853C9.00092 9.79315 7.90223 9.98536 6.95465 9.57825L6.32308 11.0483ZM6.26606 11.0238L6.32308 11.0483L6.95465 9.57825L6.89763 9.55376L6.26606 11.0238ZM0.6398 5.72154C1.83163 8.09687 3.8243 9.97479 6.26605 11.0238L6.89763 9.55376C4.80242 8.6536 3.09256 7.0422 2.06988 5.00399L0.6398 5.72154ZM1.27294 1.08172C0.124157 2.34926 -0.127376 4.19255 0.6398 5.72154L2.06988 5.00399C1.59901 4.06554 1.75339 2.93417 2.45848 2.15619L1.27294 1.08172ZM10.2169 9.15312C10.0673 9.02903 10.0605 8.80177 10.2024 8.66895L11.2956 9.83729C11.8573 9.31173 11.8304 8.41251 11.2382 7.92148L10.2169 9.15312ZM9.77907 8.40725C9.66142 8.52628 9.4723 8.53564 9.34347 8.42881L10.3648 7.19717C9.855 6.77445 9.10668 6.81149 8.64113 7.28248L9.77907 8.40725ZM3.07683 2.46947C2.9685 2.34189 2.97566 2.15267 3.09331 2.03364L4.23125 3.15841C4.69679 2.68742 4.72512 1.93871 4.29649 1.43389L3.07683 2.46947ZM2.88749 1.68284C2.75657 1.82729 2.52845 1.8236 2.40226 1.67499L3.62193 0.639416C3.12264 0.0513678 2.21999 0.0367693 1.70194 0.608367L2.88749 1.68284Z" fill="black" mask="url(#path-1-outside-1_231_970)"/>
</svg>
