<svg width="16" height="16" viewBox="0 0 16 16" fill="none" xmlns="http://www.w3.org/2000/svg">
<g clip-path="url(#clip0_256_110)">
<path fill-rule="evenodd" clip-rule="evenodd" d="M7.94105 0.0946569C9.43838 1.21362 11.6333 1.66934 13.2698 1.44425C13.7919 1.37243 14.3334 1.75772 14.3334 2.34706V8.38823C14.3334 9.87162 13.6003 11.039 12.641 12.0078C11.8521 12.8046 10.8707 13.5045 9.96036 14.1537L9.96034 14.1537C9.77573 14.2854 9.59405 14.415 9.41749 14.5428C8.98114 14.8588 8.51722 15.2833 7.99878 15.851C7.99308 15.8574 7.98716 15.8637 7.98102 15.8698C7.94456 15.9064 7.90315 15.9353 7.85886 15.9565C7.79814 15.9856 7.73238 16 7.66675 16C7.55252 16 7.43867 15.9562 7.35247 15.8698C7.34634 15.8637 7.34042 15.8574 7.33471 15.851C6.81628 15.2833 6.35235 14.8588 5.91601 14.5428C5.73957 14.4151 5.55801 14.2856 5.37354 14.154L5.37314 14.1537C4.46283 13.5045 3.48139 12.8046 2.69248 12.0078C1.73323 11.039 1.0001 9.87162 1.0001 8.38823V2.34706C1.0001 1.75772 1.54155 1.37243 2.06371 1.44425C3.70017 1.66934 5.89511 1.21362 7.39244 0.0946612C7.41905 0.0737722 7.44767 0.0562495 7.47766 0.0421851C7.53789 0.0138037 7.60251 -2.09418e-05 7.66675 2.82413e-05C7.73099 -2.06389e-05 7.79561 0.0138041 7.85583 0.0421853C7.88582 0.0562487 7.91444 0.0737698 7.94105 0.0946569ZM7.66675 14.9071C8.09225 14.4696 8.49733 14.1117 8.89611 13.8229C9.08456 13.6864 9.27438 13.5509 9.46403 13.4156C10.3737 12.7663 11.2793 12.1198 12.0093 11.3824C12.8813 10.5017 13.4445 9.54647 13.4445 8.38823V2.34706C13.4445 2.34637 13.4445 2.34613 13.4445 2.34605C13.4445 2.346 13.4444 2.34601 13.4444 2.34601L13.4444 2.346C13.444 2.34523 13.4421 2.34182 13.4367 2.33748C13.4248 2.32777 13.4076 2.32254 13.3909 2.32484C11.6367 2.56612 9.35025 2.12613 7.66675 0.989778C5.98325 2.12613 3.69675 2.56612 1.94259 2.32484C1.92585 2.32254 1.90871 2.32777 1.89677 2.33748C1.89143 2.34182 1.88947 2.34523 1.88908 2.346L1.88906 2.34601C1.88903 2.346 1.88899 2.34599 1.88899 2.34706V8.38823C1.88899 9.54647 2.45219 10.5017 3.32415 11.3824C4.05423 12.1198 4.95984 12.7663 5.86946 13.4156L5.86956 13.4156C6.05918 13.551 6.24897 13.6865 6.43739 13.8229C6.83617 14.1117 7.24125 14.4696 7.66675 14.9071Z" fill="#2787FF"/>
<path fill-rule="evenodd" clip-rule="evenodd" d="M7.16675 8L7.16675 10H8.16675V8H10.1667V7H8.16675V5H7.16675L7.16675 7H5.16675V8H7.16675Z" fill="#2787FF"/>
</g>
<defs>
<clipPath id="clip0_256_110">
<rect width="16" height="16" fill="white"/>
</clipPath>
</defs>
</svg>
