<svg width="16" height="16" viewBox="0 0 16 16" fill="none" xmlns="http://www.w3.org/2000/svg">
<g clip-path="url(#clip0_256_107)">
<path d="M10.5 8C10.5 9.38071 9.38071 10.5 8 10.5C6.61929 10.5 5.5 9.38071 5.5 8C5.5 6.61929 6.61929 5.5 8 5.5C9.38071 5.5 10.5 6.61929 10.5 8Z" stroke="#2787FF"/>
<path fill-rule="evenodd" clip-rule="evenodd" d="M9.51678 2.29222L8.73315 1.32076C8.35343 0.850032 7.64657 0.850032 7.26685 1.32076L6.48322 2.29222C5.95181 2.951 5.16312 3.33821 4.32658 3.35104L3.093 3.36994C2.49525 3.37911 2.05452 3.94252 2.17877 4.53868L2.43519 5.76897C2.60908 6.60328 2.41429 7.47334 1.90254 8.14811L1.14792 9.14315C0.782254 9.6253 0.939547 10.3279 1.4742 10.6005L2.57757 11.1632C3.32582 11.5448 3.8716 12.2425 4.07002 13.0712L4.3626 14.293C4.50437 14.8851 5.14123 15.1978 5.68369 14.9416L6.80315 14.413C7.56231 14.0545 8.43769 14.0545 9.19684 14.413L10.3163 14.9416C10.8588 15.1978 11.4956 14.8851 11.6374 14.293L11.93 13.0712C12.1284 12.2425 12.6742 11.5448 13.4224 11.1632L14.5258 10.6005C15.0605 10.3279 15.2177 9.6253 14.8521 9.14315L14.0975 8.14811C13.5857 7.47334 13.3909 6.60328 13.5648 5.76897L13.8212 4.53868C13.9455 3.94252 13.5048 3.37911 12.907 3.36994L11.6734 3.35104C10.8369 3.33821 10.0482 2.951 9.51678 2.29222ZM9.4663 0.706097C8.70687 -0.235366 7.29313 -0.235366 6.5337 0.706098L5.75007 1.67755C5.3958 2.11674 4.87001 2.37488 4.31231 2.38343L3.07873 2.40234C1.88323 2.42066 1.00178 3.5475 1.25028 4.73981L1.5067 5.9701C1.62262 6.52631 1.49276 7.10635 1.1516 7.55619L0.396973 8.55123C-0.334355 9.51554 -0.0197688 10.9207 1.04954 11.466L2.15291 12.0287C2.65174 12.2831 3.0156 12.7482 3.14787 13.3006L3.44045 14.5225C3.724 15.7067 4.99773 16.332 6.08264 15.8197L7.2021 15.2911C7.70821 15.0521 8.29179 15.0521 8.7979 15.2911L9.91736 15.8197C11.0023 16.332 12.276 15.7067 12.5595 14.5225L12.8521 13.3006C12.9844 12.7482 13.3483 12.2831 13.8471 12.0287L14.9505 11.466C16.0198 10.9207 16.3344 9.51554 15.603 8.55123L14.8484 7.5562C14.5072 7.10635 14.3774 6.52631 14.4933 5.9701L14.7497 4.73981C14.9982 3.5475 14.1168 2.42066 12.9213 2.40234L11.6877 2.38343C11.13 2.37488 10.6042 2.11674 10.2499 1.67755L9.4663 0.706097Z" fill="#2787FF"/>
</g>
<defs>
<clipPath id="clip0_256_107">
<rect width="16" height="16" fill="white"/>
</clipPath>
</defs>
</svg>
