<svg width="16" height="16" viewBox="0 0 16 16" fill="none" xmlns="http://www.w3.org/2000/svg">
<path fill-rule="evenodd" clip-rule="evenodd" d="M6.50917 1.03647C6.9582 -0.345492 8.91331 -0.345491 9.36234 1.03647L10.4319 4.32827C10.4988 4.53428 10.6908 4.67376 10.9074 4.67376H14.3686C15.8217 4.67376 16.4259 6.53319 15.2503 7.38729L12.4501 9.42173C12.2749 9.54905 12.2016 9.77474 12.2685 9.98075L13.3381 13.2725C13.7871 14.6545 12.2054 15.8037 11.0298 14.9496L8.22965 12.9152C8.05441 12.7878 7.81711 12.7878 7.64186 12.9152L4.84169 14.9496C3.66612 15.8037 2.08441 14.6545 2.53343 13.2725L3.603 9.98075C3.66994 9.77474 3.59661 9.54905 3.42137 9.42173L0.621197 7.38729C-0.554374 6.53319 0.049791 4.67376 1.50288 4.67376H4.96408C5.18069 4.67376 5.37267 4.53428 5.4396 4.32827L6.50917 1.03647ZM8.41129 1.34549C8.26161 0.884836 7.6099 0.884836 7.46023 1.34549L6.39066 4.63729C6.18985 5.25532 5.61391 5.67376 4.96408 5.67376H1.50288C1.01851 5.67376 0.817126 6.29357 1.20898 6.57827L4.00915 8.61271C4.53488 8.99468 4.75487 9.67173 4.55406 10.2898L3.48449 13.5816C3.33481 14.0422 3.86205 14.4253 4.25391 14.1406L7.05408 12.1061C7.57981 11.7242 8.2917 11.7242 8.81744 12.1061L11.6176 14.1406C12.0095 14.4253 12.5367 14.0422 12.387 13.5816L11.3175 10.2898C11.1166 9.67173 11.3366 8.99468 11.8624 8.61271L14.6625 6.57827C15.0544 6.29357 14.853 5.67376 14.3686 5.67376H10.9074C10.2576 5.67376 9.68167 5.25532 9.48086 4.63729L8.41129 1.34549Z" fill="#FFBC3A"/>
</svg>
