<svg width="12" height="12" viewBox="0 0 12 12" fill="none" xmlns="http://www.w3.org/2000/svg">
<g clip-path="url(#clip0_247_1421)">
<path d="M2.86747 0.338212H9.13253C9.42483 0.338212 9.66179 0.575169 9.66179 0.86747V8C9.66179 10.0224 8.02235 11.6618 6 11.6618C3.97769 11.6618 2.33821 10.022 2.33821 7.99962V7.98593V7.97224V7.95856V7.94489V7.93122V7.91756V7.9039V7.89025V7.87661V7.86297V7.84934V7.83572V7.8221V7.80849V7.79488V7.78128V7.76769V7.7541V7.74051V7.72693V7.71336V7.69979V7.68623V7.67268V7.65913V7.64558V7.63204V7.61851V7.60498V7.59145V7.57793V7.56442V7.55091V7.53741V7.52391V7.51041V7.49692V7.48344V7.46996V7.45648V7.44302V7.42955V7.41609V7.40263V7.38918V7.37573V7.36229V7.34885V7.33542V7.32199V7.30857V7.29515V7.28173V7.26832V7.25491V7.2415V7.2281V7.21471V7.20132V7.18793V7.17454V7.16116V7.14779V7.13441V7.12104V7.10768V7.09431V7.08096V7.0676V7.05425V7.0409V7.02756V7.01421V7.00088V6.98754V6.97421V6.96088V6.94756V6.93423V6.92092V6.9076V6.89429V6.88098V6.86767V6.85436V6.84106V6.82776V6.81447V6.80117V6.78788V6.77459V6.76131V6.74802V6.73474V6.72146V6.70819V6.69491V6.68164V6.66837V6.6551V6.64184V6.62857V6.61531V6.60205V6.5888V6.57554V6.56229V6.54904V6.53579V6.52254V6.50929V6.49605V6.48281V6.46956V6.45632V6.44309V6.42985V6.41661V6.40338V6.39015V6.37691V6.36368V6.35046V6.33723V6.324V6.31077V6.29755V6.28433V6.2711V6.25788V6.24466V6.23144V6.21822V6.205V6.19178V6.17857V6.16535V6.15213V6.13892V6.1257V6.11248V6.09927V6.08606V6.07284V6.05963V6.04641V6.0332V6.01999V6.00677V5.99356V5.98035V5.96713V5.95392V5.9407V5.92749V5.91428V5.90106V5.88785V5.87463V5.86142V5.8482V5.83498V5.82177V5.80855V5.79533V5.78211V5.76889V5.75567V5.74245V5.72923V5.71601V5.70278V5.68956V5.67633V5.6631V5.64988V5.63665V5.62342V5.61019V5.59695V5.58372V5.57048V5.55725V5.54401V5.53077V5.51753V5.50428V5.49104V5.47779V5.46454V5.4513V5.43804V5.42479V5.41154V5.39828V5.38502V5.37176V5.35849V5.34523V5.33196V5.31869V5.30542V5.29215V5.27887V5.26559V5.25231V5.23903V5.22574V5.21245V5.19916V5.18587V5.17257V5.15927V5.14597V5.13267V5.11936V5.10605V5.09274V5.07942V5.0661V5.05278V5.03945V5.02612V5.01279V4.99946V4.98612V4.97278V4.95943V4.94609V4.93273V4.91938V4.90602V4.89266V4.87929V4.86592V4.85255V4.83917V4.82579V4.81241V4.79902V4.78563V4.77223V4.75883V4.74543V4.73202V4.71861V4.70519V4.69177V4.67835V4.66492V4.65148V4.63805V4.6246V4.61116V4.5977V4.58425V4.57079V4.55732V4.54385V4.53038V4.5169V4.50342V4.48993V4.47643V4.46293V4.44943V4.43592V4.42241V4.40889V4.39536V4.38183V4.3683V4.35476V4.34122V4.32766V4.31411V4.30055V4.28698V4.27341V4.25983V4.24625V4.23266V4.21906V4.20546V4.19185V4.17824V4.16462V4.151V4.13737V4.12373V4.11009V4.09644V4.08279V4.06912V4.05546V4.04178V4.0281V4.01442V4.00073V3.98703V3.97332V3.95961V3.94589V3.93217V3.91843V3.90469V3.89095V3.8772V3.86344V3.84967V3.8359V3.82212V3.80833V3.79454V3.78074V3.76693V3.75311V3.73929V3.72546V3.71163V3.69778V3.68393V3.67007V3.6562V3.64233V3.62845V3.61456V3.60066V3.58675V3.57284V3.55892V3.54499V3.53106V3.51711V3.50316V3.4892V3.47523V3.46126V3.44727V3.43328V3.41928V3.40527V3.39125V3.37723V3.36319V3.34915V3.3351V3.32104V3.30697V3.2929V3.27881V3.26472V3.25061V3.2365V3.22238V3.20825V3.19411V3.17997V3.16581V3.15165V3.13747V3.12329V3.1091V3.09489V3.08068V3.06646V3.05223V3.03799V3.02374V3.00949V2.99522V2.98094V2.96666V2.95236V2.93805V2.92374V2.90941V2.89508V2.88073V2.86638V2.85201V2.83764V2.82325V2.80886V2.79445V2.78004V2.76561V2.75117V2.73673V2.72227V2.7078V2.69333V2.67884V2.66434V2.64983V2.63531V2.62078V2.60624V2.59169V2.57713V2.56255V2.54797V2.53338V2.51877V2.50415V2.48952V2.47489V2.46024V2.44557V2.4309V2.41622V2.40152V2.38682V2.3721V2.35737V2.34263V2.32788V2.31311V2.29834V2.28355V2.26875V2.25394V2.23912V2.22429V2.20944V2.19459V2.17972V2.16483V2.14994V2.13504V2.12012V2.10519V2.09025V2.07529V2.06033V2.04535V2.03036V2.01535V2.00034V1.98531V1.97027V1.95521V1.94015V1.92507V1.90998V1.89487V1.87975V1.86462V1.84948V1.83433V1.81916V1.80397V1.78878V1.77357V1.75835V1.74312V1.72787V1.71261V1.69733V1.68205V1.66675V1.65143V1.6361V1.62076V1.60541V1.59004V1.57466V1.55926V1.54385V1.52843V1.51299V1.49754V1.48207V1.46659V1.4511V1.43559V1.42007V1.40454V1.38899V1.37342V1.35785V1.34225V1.32665V1.31103V1.29539V1.27974V1.26408V1.2484V1.2327V1.21699V1.20127V1.18553V1.16978V1.15401V1.13823V1.12243V1.10662V1.09079V1.07495V1.0591V1.04322V1.02733V1.01143V0.995514V0.979581V0.963632V0.947668V0.931688V0.915693V0.899683V0.883656V0.867615C2.33821 0.57524 2.57524 0.338212 2.86747 0.338212Z" stroke="#212322" stroke-width="0.676424"/>
<circle cx="5.78569" cy="8.46549" r="1.07145" stroke="#212322" stroke-width="0.676424"/>
</g>
<defs>
<clipPath id="clip0_247_1421">
<rect width="12" height="12" fill="white"/>
</clipPath>
</defs>
</svg>
