<svg width="16" height="16" viewBox="0 0 16 16" fill="none" xmlns="http://www.w3.org/2000/svg">
<path d="M2.04316 2.02053H8.07393C8.401 2.02053 8.66614 2.28567 8.66614 2.61274V11.9414C8.66614 13.9338 7.05096 15.549 5.05854 15.549C3.06612 15.549 1.45095 13.9338 1.45095 11.9414V2.61274C1.45095 2.28567 1.71609 2.02053 2.04316 2.02053Z" stroke="#2787FF" stroke-width="0.901898"/>
<circle cx="5.05854" cy="11.9415" r="1.35285" stroke="#2787FF" stroke-width="0.901898"/>
<path fill-rule="evenodd" clip-rule="evenodd" d="M11.3344 2.46785L5.50909 0.906971C5.43373 0.886778 5.35628 0.9315 5.33608 1.00686L5.07204 1.99229L4.17053 1.87209L4.46492 0.773428C4.61403 0.216938 5.18603 -0.113307 5.74252 0.0358038L11.5678 1.59668C12.1243 1.74579 12.4545 2.3178 12.3054 2.87429L12.0162 3.95366L14.7136 6.65103C15.1209 7.0584 15.1209 7.7189 14.7136 8.12628L8.1172 14.7226C7.71142 15.1284 7.24109 15.4303 6.73927 15.6283L7.40282 14.159C7.42868 14.1349 7.45423 14.1101 7.47946 14.0849L7.94705 13.6173L7.9689 13.2787C8.4642 12.8744 8.8417 12.3164 9.01981 11.6517L11.4343 2.64086C11.4544 2.5655 11.4097 2.48804 11.3344 2.46785ZM9.96847 11.5959L14.0758 7.48854C14.131 7.43337 14.131 7.34393 14.0758 7.28876L11.7467 4.9596L9.96847 11.5959Z" fill="#2787FF"/>
</svg>
