<svg width="48" height="48" viewBox="0 0 48 48" fill="none" xmlns="http://www.w3.org/2000/svg">
<path fill-rule="evenodd" clip-rule="evenodd" d="M26.25 10.5C20.8825 10.5 16.4511 13.4732 15.0059 17.4137C14.9569 17.5473 14.7432 17.503 14.6315 17.4913C14.4565 17.473 14.0547 17.4708 13.5751 17.4781C13.3783 17.4811 13.1712 17.4856 12.9801 17.4898C12.727 17.4953 12.5018 17.5002 12.3654 17.5002C6.90913 17.5002 2.5 21.8731 2.5 27.2502C2.5 32.3785 6.5107 36.5935 11.6153 36.9724C12.0284 37.0031 12.3654 37.336 12.3654 37.7502C12.3654 38.1644 12.0286 38.5027 11.6152 38.476C5.69469 38.0939 1 33.221 1 27.2502C1 21.0293 6.09621 16.0002 12.3654 16.0002C12.4913 16.0002 12.6842 15.9959 12.9158 15.9908C13.1069 15.9866 13.3244 15.9818 13.5523 15.9783C13.8193 15.9743 14.0608 15.8205 14.1869 15.5851C16.2923 11.6572 20.9463 9 26.25 9C32.6849 9 38.1513 13.3168 39.2847 18.6944C39.3631 19.0663 39.6241 19.3773 39.9811 19.5076C44.4387 21.1343 47.4998 24.3819 47.4998 28.7499C47.4998 33.4211 43.754 37.251 38.7275 38.7758C38.3311 38.8961 37.9221 38.6514 37.8203 38.2499C37.7186 37.8484 37.963 37.4421 38.3589 37.3204C42.9457 35.9103 45.9998 32.521 45.9998 28.7499C45.9998 25.1319 43.4072 22.2377 39.1179 20.7931C39.0326 20.7643 38.9423 20.75 38.8522 20.75C38.3815 20.75 38.0044 20.3673 37.9558 19.8991C37.4399 14.925 32.467 10.5 26.25 10.5Z" fill="black"/>
<path d="M38.25 38.2498L28.7501 38.2499C26.5409 38.25 24.75 36.4591 24.75 34.2499V20.25M24.75 20.25L31.25 27.0608M24.75 20.25L18.75 27.0608" stroke="black" stroke-width="1.5" stroke-linecap="round" stroke-linejoin="round"/>
</svg>
