<svg width="16" height="16" viewBox="0 0 16 16" fill="none" xmlns="http://www.w3.org/2000/svg">
<g clip-path="url(#clip0_248_1438)">
<circle cx="8.02611" cy="8.36156" r="6.39204" stroke="#212322" stroke-width="1.16219"/>
<path fill-rule="evenodd" clip-rule="evenodd" d="M15.4526 3.34939C15.2022 3.55012 14.8379 3.50838 14.621 3.27182C13.8804 2.46404 12.9898 1.79647 11.9938 1.31324C11.705 1.17315 11.5605 0.836137 11.6809 0.538655V0.538655C11.8013 0.241174 12.141 0.0960752 12.4308 0.233865C13.612 0.795391 14.6636 1.58416 15.5295 2.54342C15.7445 2.78166 15.703 3.14866 15.4526 3.34939V3.34939ZM3.95838 0.807391C4.09897 1.09589 3.97791 1.44205 3.69945 1.6016C2.78135 2.12765 1.96782 2.81612 1.29825 3.62791C1.09405 3.8755 0.732398 3.93627 0.471819 3.74894V3.74894C0.211241 3.5616 0.150561 3.19728 0.352836 2.94812C1.1364 1.98294 2.09852 1.16843 3.18925 0.554842C3.46896 0.397493 3.8178 0.518893 3.95838 0.807391V0.807391Z" fill="#212322"/>
<path fill-rule="evenodd" clip-rule="evenodd" d="M7.92814 4.67749C7.60721 4.67749 7.34705 4.93765 7.34705 5.25858V8.49784C7.34705 9.02826 7.55775 9.53696 7.93281 9.91203L9.11755 11.0968C9.34447 11.3237 9.71239 11.3238 9.93935 11.0969V11.0969C10.1664 10.8699 10.1664 10.5019 9.93938 10.2749L9.04846 9.38412C8.7032 9.0389 8.50923 8.57066 8.50923 8.08242V5.25858C8.50923 4.93765 8.24907 4.67749 7.92814 4.67749V4.67749Z" fill="#212322"/>
</g>
<defs>
<clipPath id="clip0_248_1438">
<rect width="16" height="16" fill="white"/>
</clipPath>
</defs>
</svg>
