<svg width="12" height="12" viewBox="0 0 12 12" fill="none" xmlns="http://www.w3.org/2000/svg">
<path d="M8.5 3C8.5 4.38071 7.38071 5.5 6 5.5C4.61929 5.5 3.5 4.38071 3.5 3C3.5 1.61929 4.61929 0.5 6 0.5C7.38071 0.5 8.5 1.61929 8.5 3Z" stroke="#7EB6FF"/>
<path d="M10.5 11.5H1.5L1.50001 10.4566L1.5 8.62832C1.89756 8.34127 2.56371 8.06967 3.36366 7.86237C4.26252 7.62945 5.2416 7.5 6 7.5C6.80497 7.5 7.78771 7.61347 8.67268 7.8364C9.46953 8.03713 10.1163 8.30933 10.5 8.61412V11.5Z" stroke="#7EB6FF"/>
</svg>
