<svg width="16" height="16" viewBox="0 0 16 16" fill="none" xmlns="http://www.w3.org/2000/svg">
<path fill-rule="evenodd" clip-rule="evenodd" d="M2.1321 1H12.7989L16 3.06053V13.1538H2.5C1.11929 13.1538 0 12.1196 0 10.8439V3.11644L2.1321 1ZM2.54178 1.92398L1.72046 2.84792H13.8271L12.5 1.92398H2.54178ZM15 3.77189H1V10.8439C1 11.6093 1.67157 12.2298 2.5 12.2298H15V3.77189Z" fill="#2787FF"/>
<path d="M10 8C10 9.10457 9.10457 10 8 10C6.89543 10 6 9.10457 6 8C6 6.89543 6.89543 6 8 6C9.10457 6 10 6.89543 10 8Z" stroke="#2787FF"/>
</svg>
