<svg width="24" height="24" viewBox="0 0 24 24" fill="none" xmlns="http://www.w3.org/2000/svg">
<g clip-path="url(#clip0_288_128)">
<circle cx="12" cy="12" r="11.3" stroke="#7A7A7A" stroke-width="1.4"/>
<path d="M23.3 12C23.3 13.2489 22.2694 14.568 20.1722 15.6165C18.1169 16.6442 15.2286 17.3 12 17.3C8.7714 17.3 5.88306 16.6442 3.82777 15.6165C1.73061 14.568 0.7 13.2489 0.7 12C0.7 10.7511 1.73061 9.43204 3.82777 8.38346C5.88306 7.35581 8.7714 6.7 12 6.7C15.2286 6.7 18.1169 7.35581 20.1722 8.38346C22.2694 9.43204 23.3 10.7511 23.3 12Z" stroke="#7A7A7A" stroke-width="1.4"/>
<path d="M12 0.700001C13.2489 0.7 14.568 1.73061 15.6165 3.82777C16.6442 5.88306 17.3 8.7714 17.3 12C17.3 15.2286 16.6442 18.1169 15.6165 20.1722C14.568 22.2694 13.2489 23.3 12 23.3C10.7511 23.3 9.43204 22.2694 8.38346 20.1722C7.35581 18.1169 6.7 15.2286 6.7 12C6.7 8.7714 7.35581 5.88306 8.38346 3.82777C9.43204 1.73061 10.7511 0.700001 12 0.700001Z" stroke="#7A7A7A" stroke-width="1.4"/>
</g>
<defs>
<clipPath id="clip0_288_128">
<rect width="24" height="24" fill="white"/>
</clipPath>
</defs>
</svg>
