<svg width="16" height="16" viewBox="0 0 16 16" fill="none" xmlns="http://www.w3.org/2000/svg">
<path d="M2 4.00004C2 3.46959 2.21071 2.96088 2.58579 2.5858C2.96086 2.21072 3.46957 2 4 2H10C10.5304 2 11.0391 2.21072 11.4142 2.5858C11.7893 2.96088 12 3.46959 12 4.00004V15.5002C12 15.5907 11.9754 15.6794 11.9289 15.757C11.8824 15.8346 11.8157 15.8981 11.736 15.9408C11.6563 15.9835 11.5664 16.0038 11.4761 15.9994C11.3858 15.9951 11.2983 15.9664 11.223 15.9163L7 13.1012L2.777 15.9163C2.70171 15.9664 2.61423 15.9951 2.52389 15.9994C2.43355 16.0038 2.34373 15.9835 2.264 15.9408C2.18427 15.8981 2.1176 15.8346 2.07111 15.757C2.02462 15.6794 2.00005 15.5907 2 15.5002V4.00004ZM4 3.00002C3.73478 3.00002 3.48043 3.10538 3.29289 3.29292C3.10536 3.48046 3 3.73482 3 4.00004V14.5662L6.723 12.0842C6.80506 12.0296 6.90143 12.0004 7 12.0004C7.09857 12.0004 7.19494 12.0296 7.277 12.0842L11 14.5662V4.00004C11 3.73482 10.8946 3.48046 10.7071 3.29292C10.5196 3.10538 10.2652 3.00002 10 3.00002H4Z" fill="#1A130F"/>
<path d="M4 1.00002H11.9449C12.2174 1.00002 12.4788 1.10538 12.6715 1.29292C12.8642 1.48046 12.9725 1.73482 12.9725 2.00004V13.7683L13.2016 13.9163C13.279 13.9664 13.3689 13.9951 13.4617 13.9994C13.5545 14.0038 13.6468 13.9835 13.7287 13.9408C13.8107 13.8981 13.8792 13.8346 13.9269 13.757C13.9747 13.6794 14 13.5907 14 13.5002V2.00004C14 1.46959 13.7835 0.960877 13.3981 0.585797C13.0127 0.210718 12.49 0 11.9449 0L5.7797 0C5.41896 8.9186e-06 5.06459 0.0924274 4.75219 0.267967C4.43979 0.443506 4.18037 0.695982 4 1.00002Z" fill="#1A130F"/>
</svg>
